<svg width="404" height="332" viewBox="0 0 404 332" fill="none" xmlns="http://www.w3.org/2000/svg">
<g clip-path="url(#clip0_741_787)">
<g style="mix-blend-mode:multiply">
<path d="M398.082 307.755C391.89 316.457 376.255 321.978 368.206 323.609C342.996 328.7 313.827 323.339 288.375 321.888C256.237 320.058 224.665 325.999 192.466 326.129C161.974 326.249 132.502 326.629 102.384 330.52C83.3251 332.981 63.0039 330.62 44.5411 324.269C37.2489 321.758 28.5629 309.166 25.0582 303.674C24.0381 302.084 23.119 300.434 22.2908 298.733C16.2106 286.281 -10.5443 228.368 4.54514 202.913C23.4119 171.096 49.6113 177.538 86.8702 177.688C123.18 177.828 299.394 178.478 318.817 177.308C319.13 177.288 319.443 177.268 319.756 177.248C350.349 175.417 377.579 196.372 383.275 226.198C386.123 241.131 392.638 254.874 398.314 264.736C404.737 275.889 405.758 289.301 401.071 301.264C399.889 304.265 398.819 306.695 398.061 307.755H398.082Z" fill="#2AB5B8"/>
</g>
<path d="M117.625 221.337L133.259 225.188L137.33 218.477L227.674 64.5139L282.891 224.018L360.721 200.213L298.819 301.584C298.819 301.584 233.482 305.385 198.253 305.395C160.812 305.405 105.909 301.584 105.909 301.584L23.7451 196.792L117.625 221.337Z" fill="#C3D973"/>
<path d="M183.547 123.056L183.699 146.681C183.699 146.681 158.802 140.17 145.804 132.828C132.805 125.487 122.685 117.925 122.685 117.925C122.685 117.925 129.886 95.2704 131.371 82.5177C132.532 72.4856 133.037 73.5258 133.037 73.5258C133.037 73.5258 123.493 79.5371 111.251 78.1068C99.0002 76.6765 92.6776 70.1251 90.1223 60.5131C87.567 50.9011 87.4963 40.6789 87.769 36.8381C88.0316 32.9973 88.1427 31.9771 88.1427 31.9771L104.141 30.3867C104.141 30.3867 101.586 55.162 112.938 56.6423C112.938 56.6423 117.14 58.9828 127.876 51.8613C138.622 44.7498 150.874 38.0383 154.621 36.8281L148.48 100.241L169.953 37.8483L176.689 43.1094C176.689 43.1094 194.102 47.8204 203.717 60.193C213.332 72.5656 216.332 88.0789 215.746 99.0812C215.16 110.084 209.918 129.068 195.92 141.78L183.992 123.296C183.992 123.296 195.93 108.023 197.667 97.5209C199.404 87.0087 194.061 82.3377 189.254 80.9374L183.578 123.046L183.547 123.056Z" fill="#7D8C45" stroke="#0A0C0C" stroke-width="1.1" stroke-miterlimit="10"/>
<path d="M147.551 21.0448L149.672 21.1448C149.672 21.1448 150.308 19.9645 150.288 18.9543C150.268 17.9441 149.733 17.594 149.733 17.594L147.713 17.504L147.773 16.2037L149.218 10.4125C149.218 10.4125 151.904 7.52191 157.237 8.01201C162.57 8.50211 165.509 9.44231 165.509 9.44231C165.509 9.44231 166.862 13.2331 166.539 18.9143C166.539 18.9143 169.044 15.4836 171.862 16.9939C174.68 18.5042 175.043 23.4353 170.256 25.3957L170.145 37.5483L168.478 42.0292C168.478 42.0292 163.206 43.8196 159.671 43.4895C156.136 43.1594 154.661 40.6389 154.661 40.6389L154.833 36.8581C154.833 36.8581 150.228 37.3582 147.884 33.9875C145.541 30.6168 147.561 21.0448 147.561 21.0448H147.551Z" fill="#F4F9F9"/>
<path d="M190.688 133.758L184.173 123.706C184.173 123.706 179.336 122.076 177.831 122.226C176.336 122.366 175.154 122.346 173.962 124.887C172.771 127.427 172.336 129.978 172.336 129.978C172.336 129.978 168.559 133.248 168.943 133.969C169.326 134.689 172.316 133.989 174.387 133.378C176.457 132.768 178.608 134.399 181.921 134.809C185.244 135.209 188.779 135.439 190.678 133.779L190.688 133.758Z" fill="#F4F9F9"/>
<path d="M102.616 202.743L101.606 210.025L97.9095 209.494L97.3338 207.834L95.5057 209.214L69.8618 207.544L83.7796 201.333L102.616 202.743Z" fill="#49746F"/>
<path d="M155.53 1.75058C160.651 0.200252 167.185 0.600337 170.761 5.37135C170.761 5.37135 174.77 6.31155 174.902 10.7525C175.023 15.1834 173.003 17.974 173.003 17.974C173.003 17.974 170.771 15.1134 168.286 17.2739L167.397 17.734C167.397 17.734 168.417 12.4929 167.014 10.0723C167.014 10.0723 163.489 7.87188 158.519 7.85187C153.54 7.83187 149.389 9.96232 149.389 9.96232L148.005 13.413C148.005 13.413 148.076 11.0225 148.379 8.78207C148.813 5.6414 150.409 3.31091 155.53 1.76058V1.75058Z" fill="#0A0C0C"/>
<path d="M180.649 145.821L185.587 230.939L155.277 223.748L142.37 150.892C142.37 150.892 127.048 146.851 119.443 147.331C111.837 147.812 109.656 151.322 109.1 155.653C108.757 158.304 108.949 202.913 108.949 202.913L78.073 200.803L79.8809 145.091C79.8809 145.091 77.8306 131.028 91.2232 124.967C105.232 118.625 122.21 117.485 122.21 117.485C122.21 117.485 134.593 128.998 154.601 136.439C174.609 143.881 180.659 145.821 180.659 145.821H180.649Z" fill="#F4F9F9"/>
<path d="M82.8302 19.8445C82.8504 17.324 82.507 16.9939 82.507 16.9939L123.271 17.0539L123.695 18.3342L150.076 18.7543C150.965 20.0645 149.632 22.445 149.632 22.445L123.826 22.8251L123.089 24.1854L81.093 23.9554C81.093 23.9554 82.81 22.5251 82.8302 19.8445Z" fill="#EA5A4C"/>
<path d="M89.981 15.9635C89.981 15.9635 89.7285 13.513 95.4249 13.233C101.121 12.9529 102.424 13.473 103.192 13.9031C103.959 14.3232 106.424 14.7233 106.232 18.8842L107.363 22.855C107.363 22.855 105.495 28.8063 101.788 30.4666L91.2233 31.3468L89.7891 22.835L102.616 22.755L101.808 20.1544C101.808 20.1544 101.333 21.6748 99.374 21.5847C97.4247 21.4847 97.0005 18.7841 97.0005 18.7841C97.0005 18.7841 96.4753 21.7248 93.9301 21.5847C91.3849 21.4447 91.4253 20.0444 91.4253 20.0444C91.4253 20.0444 93.1524 17.5239 91.496 16.1636L89.9709 15.9836L89.981 15.9635Z" fill="#F4F9F9"/>
<path d="M79.5779 19.9145C79.5779 21.9049 80.1334 23.5252 80.8303 23.5252C81.5272 23.5252 82.0928 21.9049 82.0928 19.9145C82.0928 17.9241 81.5272 16.3037 80.8303 16.3037C80.1334 16.3037 79.5779 17.9241 79.5779 19.9145Z" fill="#F4F9F9"/>
<path d="M87.8801 203.643L80.7192 203.023C80.7798 202.353 87.9104 202.973 87.9104 202.973C88.2033 203.513 88.0518 203.643 87.8801 203.643Z" fill="#F4F9F9"/>
<path d="M84.7693 205.064L77.6084 204.443C77.669 203.773 84.7996 204.393 84.7996 204.393C85.0925 204.934 84.941 205.064 84.7693 205.064Z" fill="#F4F9F9"/>
<path d="M200.536 33.4672H315.251L298.061 31.6868C298.061 31.6868 299.516 24.0752 289.496 22.0448C279.467 20.0143 277.589 27.756 277.589 27.756C277.589 27.756 282.83 15.7034 260.479 14.9433C238.118 14.1831 240.32 27.3759 240.32 27.3759C240.32 27.3759 241.35 24.5553 234.098 24.1852C226.846 23.8251 226.22 29.9064 226.22 29.9064L200.536 33.4572V33.4672Z" fill="#F4F9F9"/>
<path d="M300.435 94.7802H347.591L331.967 91.3194C331.967 91.3194 331.815 86.7184 323.018 86.4784C314.221 86.2383 314.928 92.2896 314.928 92.2896L300.435 94.7802Z" fill="#F4F9F9"/>
<path d="M127.159 102.962L115.423 101.562C115.423 101.562 119.22 91.7897 105.919 89.6492C92.6069 87.5088 88.8093 99.3713 88.8093 99.3713C88.8093 99.3713 88.3346 96.0706 79.7799 96.0706C71.2252 96.0706 68.8517 102.792 68.8517 102.792L40.1677 106.153L125.947 106.393L127.169 102.972L127.159 102.962Z" fill="#F4F9F9"/>
<path d="M310.242 145.271C309.636 144.901 309.636 144.551 309.848 144.341L315.524 138.72C315.736 138.51 316.09 138.51 316.302 138.72C316.514 138.93 316.514 139.28 316.302 139.49L310.626 145.111C310.514 145.211 310.373 145.271 310.232 145.271H310.242Z" fill="#0A0C0C"/>
<path d="M315.918 145.271C315.524 145.111 309.848 139.49 309.848 139.49C309.636 139.28 309.636 138.93 309.848 138.72C310.06 138.51 310.413 138.51 310.625 138.72L316.302 144.341C316.514 144.551 316.514 144.901 316.302 145.111C316.191 145.211 316.049 145.271 315.908 145.271H315.918Z" fill="#0A0C0C"/>
<path d="M303.505 136.169C302.303 136.169 301.333 135.209 301.333 134.019C301.333 132.828 302.313 131.868 303.505 131.868C304.697 131.868 305.676 132.828 305.676 134.019C305.676 135.209 304.697 136.169 303.505 136.169ZM303.505 132.958C302.909 132.958 302.434 133.439 302.434 134.019C302.434 134.599 302.909 135.079 303.505 135.079C304.101 135.079 304.576 134.599 304.576 134.019C304.576 133.439 304.101 132.958 303.505 132.958Z" fill="#0A0C0C"/>
<path d="M50.1364 45.57C48.9345 45.57 47.9548 44.6097 47.9548 43.4195C47.9548 42.2292 48.9345 41.269 50.1364 41.269C51.3383 41.269 52.3079 42.2292 52.3079 43.4195C52.3079 44.6097 51.3282 45.57 50.1364 45.57ZM50.1364 42.3593C49.5405 42.3593 49.0658 42.8394 49.0658 43.4195C49.0658 43.9996 49.5506 44.4797 50.1364 44.4797C50.7222 44.4797 51.207 43.9996 51.207 43.4195C51.207 42.8394 50.7323 42.3593 50.1364 42.3593Z" fill="#0A0C0C"/>
<path d="M78.6489 177.798H53.712C53.409 177.798 53.1565 177.558 53.1565 177.248C53.1565 176.938 53.409 176.698 53.712 176.698H78.6489C78.9519 176.698 79.2044 176.938 79.2044 177.248C79.2044 177.558 78.9519 177.798 78.6489 177.798Z" fill="#0A0C0C"/>
<path d="M212.726 310.596C176.649 310.596 124.24 306.805 123.715 306.775C122.937 306.005 41.1475 194.601 41.1475 194.601C41.7333 193.751 78.0327 203.313 78.0327 203.313C78.3256 203.393 78.4973 203.683 78.4266 203.983C78.3458 204.273 78.0428 204.443 77.7499 204.373L42.9554 195.201L124.068 305.705C128.159 305.995 178.023 309.506 212.736 309.506C255.379 309.506 311.817 305.985 316.352 305.705L377.397 205.724L231.997 243.112C231.724 243.112 95.3643 209.755 95.3643 209.755C95.0714 209.685 94.8896 209.384 94.9603 209.094C95.031 208.804 95.3138 208.614 95.6269 208.694L231.856 242.021L378.427 204.333C379.033 205.144 317.14 306.515 317.14 306.515C316.11 306.815 257.005 310.606 212.736 310.606L212.726 310.596Z" fill="#0A0C0C"/>
<path d="M299.526 225.718C299 225.348 245.38 70.4551 245.38 70.4551L182.911 176.918C182.76 177.178 182.426 177.268 182.154 177.118C181.891 176.968 181.8 176.638 181.952 176.378L245.026 68.8848C246.026 68.9848 300.041 225.008 300.041 225.008C300.142 225.298 299.98 225.608 299.697 225.698C299.637 225.718 299.576 225.728 299.516 225.728L299.526 225.718Z" fill="#0A0C0C"/>
<path d="M219.029 239.961C218.635 239.901 218.433 239.621 218.483 239.331L237.148 128.177L191.617 232.749C191.496 233.029 191.173 233.159 190.89 233.029C190.607 232.909 190.486 232.589 190.597 232.309L237.916 123.626C238.027 123.376 238.31 123.236 238.582 123.316C238.845 123.396 239.017 123.656 238.966 123.926L219.554 239.501C219.503 239.771 219.271 239.961 219.009 239.961H219.029Z" fill="#0A0C0C"/>
<path d="M215.999 310.596C215.574 310.516 215.393 310.226 215.463 309.926L231.31 242.451C231.381 242.161 231.684 241.981 231.977 242.041C232.27 242.111 232.462 242.401 232.391 242.701L216.544 310.176C216.483 310.426 216.261 310.596 216.009 310.596H215.999Z" fill="#0A0C0C"/>
<path d="M363.378 177.798H282.931C282.628 177.798 282.376 177.558 282.376 177.248C282.376 176.938 282.628 176.698 282.931 176.698H363.378C363.681 176.698 363.933 176.938 363.933 177.248C363.933 177.558 363.681 177.798 363.378 177.798Z" fill="#0A0C0C"/>
<path d="M147.238 177.798H108.737C108.434 177.798 108.181 177.558 108.181 177.248C108.181 176.938 108.434 176.698 108.737 176.698H147.238C147.541 176.698 147.793 176.938 147.793 177.248C147.793 177.558 147.541 177.798 147.238 177.798Z" fill="#0A0C0C"/>
<path d="M106.353 20.6745C106.01 20.6545 105.787 20.3944 105.808 20.0944C105.929 18.064 105.515 16.5136 104.545 15.4834C103.525 14.4032 101.919 13.8631 99.6264 13.8431C99.4042 13.8431 99.1113 13.8331 98.7679 13.8231C96.3944 13.743 90.8495 13.563 90.4859 15.8535C90.4354 16.1535 90.1829 16.3636 89.8597 16.3036C89.5567 16.2536 89.3547 15.9735 89.4052 15.6834C89.9203 12.4328 95.9298 12.6328 98.8083 12.7328C99.1416 12.7428 99.4244 12.7528 99.6466 12.7528C102.252 12.7728 104.121 13.423 105.353 14.7432C106.525 15.9935 107.05 17.8139 106.908 20.1644C106.888 20.4545 106.646 20.6745 106.363 20.6745H106.353Z" fill="#0A0C0C"/>
<path d="M94.2027 22.1148C91.2333 22.1148 91.102 20.0844 91.102 20.0644C91.2535 19.6443 92.5463 17.7139 90.9606 16.3836C90.7283 16.1836 90.698 15.8435 90.9 15.6135C91.0919 15.3834 91.4454 15.3534 91.6777 15.5534C93.4351 17.0338 92.8695 19.0942 92.2332 20.1444C92.3342 20.4445 92.7685 21.1046 94.4451 21.0246C95.1117 20.9946 95.6066 20.7946 95.9298 20.4345C96.4651 19.8244 96.3843 18.9042 96.3843 18.8942C96.354 18.6041 96.5661 18.344 96.859 18.304C97.1317 18.244 97.4246 18.4541 97.4751 18.7441C97.4852 18.8341 97.9195 21.0246 99.6567 21.0246C101.242 21.0246 101.465 19.8444 101.475 19.7143C101.515 19.4143 101.798 19.2142 102.091 19.2442C102.394 19.2842 102.596 19.5543 102.565 19.8444C102.464 20.6245 101.737 22.1048 99.6668 22.1148C98.4447 22.1148 97.6165 21.4447 97.0913 20.6645C96.2328 21.7448 95.4652 22.0748 94.4855 22.1148C94.3845 22.1148 94.2936 22.1148 94.2027 22.1148Z" fill="#0A0C0C"/>
<path d="M101.586 210.575C101.485 210.575 97.8187 209.915 97.8187 209.915C97.3844 209.514 97.1521 208.644 97.1521 208.644L95.8189 209.655C95.4452 209.765 69.8013 208.094 69.8013 208.094C69.6094 207.054 83.5373 200.843 83.5373 200.843C83.81 200.723 84.1433 200.843 84.2645 201.113C84.3857 201.393 84.2645 201.713 83.9918 201.833L72.0839 207.144L95.3139 208.664L97.142 207.274C98.0106 207.574 98.354 208.904 98.354 208.904L101.111 209.394L102.061 202.673C102.101 202.373 102.394 202.173 102.687 202.213C102.99 202.253 103.202 202.533 103.162 202.833L102.131 210.115C101.808 210.545 101.697 210.585 101.586 210.585V210.575Z" fill="#0A0C0C"/>
<path d="M154.389 37.368C151.924 37.368 150.056 36.7778 148.713 35.5776C145.652 32.847 146.117 27.5959 146.521 22.9549C146.571 22.4148 146.612 21.8847 146.652 21.3746C146.672 21.0745 146.945 20.8345 147.248 20.8745C147.551 20.8945 147.783 21.1545 147.753 21.4546C147.713 21.9747 147.662 22.5048 147.622 23.0549C147.238 27.4359 146.793 32.4069 149.45 34.7674C151.197 36.3178 154.106 36.6678 158.348 35.8477C158.641 35.7876 158.934 35.9777 158.994 36.2777C159.055 36.5778 158.863 36.8579 158.56 36.9179C157.025 37.2179 155.631 37.368 154.399 37.368H154.389Z" fill="#0A0C0C"/>
<path d="M147.712 18.044C147.409 18.044 147.157 17.804 147.157 17.4939C147.157 13.8031 148.642 10.2524 148.702 10.1023C148.823 9.82228 149.147 9.69225 149.419 9.81228C149.702 9.93231 149.833 10.2524 149.712 10.5324C149.702 10.5624 148.258 14.0332 148.258 17.5039C148.258 17.804 148.005 18.054 147.702 18.054L147.712 18.044Z" fill="#0A0C0C"/>
<path d="M170.326 25.9358C169.387 25.9358 168.498 25.5757 167.761 24.8856C167.539 24.6755 167.529 24.3354 167.741 24.1154C167.943 23.8954 168.296 23.8854 168.519 24.0954C169.044 24.5855 169.67 24.8456 170.326 24.8456C171.134 24.8456 171.892 24.4455 172.468 23.7453C173.074 23.0052 173.397 22.015 173.387 20.9647C173.377 18.8443 171.993 17.1239 170.316 17.1239C169.135 17.1239 167.468 17.9841 166.953 19.2044C166.832 19.4844 166.509 19.6044 166.236 19.4944C165.953 19.3744 165.822 19.0543 165.943 18.7843C166.65 17.1039 168.761 16.0437 170.306 16.0337C172.609 16.0337 174.488 18.2442 174.498 20.9647C174.498 22.265 174.094 23.4953 173.336 24.4355C172.548 25.4057 171.498 25.9358 170.357 25.9458H170.326V25.9358Z" fill="#0A0C0C"/>
<path d="M173.023 18.6041C172.518 18.4241 172.397 18.104 172.528 17.824C174.447 13.8031 174.872 10.5524 173.761 8.42198C172.7 6.40155 170.599 6.01147 170.579 6.01147C167.64 1.17045 160.105 0.81037 153.773 2.47072C150.248 3.40092 148.076 4.90124 147.319 6.95167C146.238 9.89229 148.44 13.053 148.46 13.083C148.632 13.333 148.571 13.6731 148.329 13.8431C148.076 14.0132 147.743 13.9531 147.561 13.7131C147.46 13.5631 145.006 10.0623 146.278 6.58159C147.167 4.18108 149.591 2.44071 153.49 1.4105C159.671 -0.209846 167.913 -0.219848 171.034 4.99125C171.741 5.18129 173.66 5.86144 174.74 7.91187C176.033 10.3824 175.629 13.8731 173.528 18.2841C173.437 18.4841 173.235 18.5941 173.033 18.5941L173.023 18.6041Z" fill="#0A0C0C"/>
<path d="M166.559 19.0241C166.206 18.9941 165.984 18.724 166.014 18.424C166.014 18.374 166.448 13.603 165.095 9.88217C163.327 9.38206 152.995 6.68149 149.652 10.6623C149.46 10.8924 149.106 10.9224 148.874 10.7323C148.642 10.5423 148.612 10.1922 148.803 9.96219C152.934 5.06115 165.165 8.75193 165.681 8.91196C167.589 13.2429 167.135 18.314 167.115 18.524C167.084 18.8041 166.852 19.0141 166.569 19.0141L166.559 19.0241Z" fill="#0A0C0C"/>
<path d="M115.049 78.8368C110.292 78.8368 106.181 77.8766 102.949 76.7064C83.3149 69.6349 87.5872 33.4472 87.7791 31.9069C88.274 31.4268 104.262 29.8465 104.262 29.8465C104.555 29.7965 104.838 30.0365 104.868 30.3366C104.899 30.6366 104.676 30.9067 104.373 30.9367L88.8194 32.477C88.3952 36.6379 85.6278 69.3048 103.323 75.6862C109.888 78.0467 120.24 79.567 132.28 73.3457C133.017 72.9656 133.219 72.8556 133.532 73.0756C126.3 77.6766 120.281 78.8468 115.039 78.8468L115.049 78.8368Z" fill="#0A0C0C"/>
<path d="M155.57 224.298C154.904 223.147 143.107 157.013 142.097 151.372C140.673 151.142 138.865 150.742 136.815 150.282C127.341 148.162 113.029 144.961 110.08 153.353C109.454 155.143 109.454 157.084 109.464 158.974V173.257C109.464 183.179 109.464 193.091 109.504 203.013C108.908 203.553 78.0529 201.383 78.0529 201.383C77.76 201.363 77.5378 201.123 77.5378 200.833C77.5378 200.373 78.2145 154.733 79.7396 138.84C81.2849 122.656 105 119.346 122.321 116.925C122.655 116.905 122.907 117.095 122.947 117.395C122.988 117.695 122.776 117.965 122.483 118.015C105.525 120.376 82.305 123.626 80.8405 138.95C79.4164 153.883 78.7296 195.232 78.6488 200.333L108.393 202.433C108.363 192.711 108.363 182.989 108.363 173.257V158.974C108.363 157.094 108.353 154.953 109.04 152.993C112.302 143.671 127.2 147.001 137.057 149.212C139.289 149.712 141.208 150.142 142.653 150.342C142.935 150.462 147.423 174.897 156.116 223.648C156.166 223.948 155.964 224.228 155.671 224.278C155.641 224.278 155.601 224.278 155.57 224.278V224.298Z" fill="#0A0C0C"/>
<path d="M185.81 231.759C185.517 231.759 185.274 231.539 185.264 231.249L180.305 145.861C180.285 145.561 180.517 145.301 180.82 145.281C181.194 145.271 181.386 145.491 181.406 145.791L186.365 231.179C186.385 231.479 186.153 231.739 185.85 231.759H185.82H185.81Z" fill="#0A0C0C"/>
<path d="M125.26 22.1248C125.26 21.3046 149.379 20.8245 149.379 20.8245C149.46 20.8045 149.743 20.5144 149.743 19.4942C149.743 18.314 149.288 18.1539 149.288 18.1439L125.472 17.6838C125.493 16.8636 149.399 17.3438 149.399 17.3438C149.581 17.3738 150.571 17.6238 150.571 19.4942C150.571 21.5846 149.51 21.6447 149.389 21.6447L125.27 22.1248H125.26Z" fill="#0A0C0C"/>
<path d="M91.3141 16.3736H82.2847C82.2847 15.5535 91.3141 15.5535 91.3141 15.5535C91.7282 16.1836 91.5464 16.3736 91.3141 16.3736Z" fill="#0A0C0C"/>
<path d="M124.917 23.2951H107.404C107.404 22.4749 124.634 22.4749 124.634 22.4749C124.786 22.0448 125.058 21.0146 125.058 19.4243C125.058 17.6539 124.796 16.7337 124.654 16.3736H105.656C105.656 15.5535 124.917 15.5535 124.917 15.5535C125.331 15.8335 125.887 16.7637 125.887 19.4243C125.887 21.7948 125.321 23.015 125.291 23.0651C125.22 23.2051 125.079 23.2951 124.917 23.2951Z" fill="#0A0C0C"/>
<path d="M102.747 23.295H82.2847C82.2847 22.4749 102.747 22.4749 102.747 22.4749C103.161 23.105 102.98 23.295 102.747 23.295Z" fill="#0A0C0C"/>
<path d="M82.2849 23.2951C81.184 23.2951 80.679 21.2847 80.679 19.4243C80.679 17.5639 81.184 15.5535 82.2849 15.5535C83.3858 15.5535 83.8908 17.5639 83.8908 19.4243C83.8908 21.2847 83.3858 23.2951 82.2849 23.2951ZM82.2849 16.3736C82.0829 16.3736 81.5072 17.4239 81.5072 19.4243C81.5072 21.4247 82.0829 22.4749 82.2849 22.4749C82.4869 22.4749 83.0626 21.4247 83.0626 19.4243C83.0626 17.4239 82.4869 16.3736 82.2849 16.3736Z" fill="#0A0C0C"/>
<path d="M142.572 151.442C142.299 151.442 142.057 151.242 142.026 150.962L140.663 140.22C140.622 139.92 140.845 139.65 141.137 139.61C141.481 139.57 141.713 139.79 141.754 140.08L143.117 150.822C143.157 151.122 142.935 151.392 142.642 151.432C142.622 151.432 142.592 151.432 142.572 151.432V151.442Z" fill="#0A0C0C"/>
<path d="M170.135 38.3983C169.822 38.3983 169.579 38.1483 169.579 37.8482L169.791 25.3856C169.791 25.0855 170.044 24.8455 170.347 24.8455C170.66 24.8455 170.902 25.0955 170.902 25.3956L170.69 37.8582C170.69 38.1583 170.438 38.3983 170.135 38.3983Z" fill="#0A0C0C"/>
<path d="M161.115 44.0495C155.702 43.6594 154.086 40.9188 154.015 40.8088C153.944 40.4887 154.267 36.8079 154.267 36.8079C154.298 36.5079 154.56 36.2678 154.863 36.3078C155.166 36.3378 155.389 36.5979 155.368 36.898L155.055 40.3987C155.409 40.8988 156.924 42.6592 160.6 42.9392C162.913 43.1093 167.327 42.019 168.387 41.4489C168.65 41.2989 168.983 41.3989 169.135 41.669C169.286 41.939 169.185 42.2691 168.912 42.4091C167.66 43.0893 163.6 44.0495 161.105 44.0495H161.115Z" fill="#0A0C0C"/>
<path d="M102.323 30.9367C101.697 30.3566 101.808 30.0365 102.081 29.9065C104.848 28.5662 106.505 23.8152 106.797 22.895C106.171 20.9846 104.939 17.9139 104.131 17.2838C103.03 17.7739 102.374 19.4442 102.596 20.1944C102.98 21.4947 103.394 22.7149 103.394 22.7149C103.495 22.995 103.333 23.3051 103.05 23.4051C102.747 23.5051 102.444 23.3451 102.353 23.065C102.353 23.065 101.929 21.8247 101.545 20.4945C101.192 19.3042 102.03 17.1238 103.111 16.4036C103.677 16.0135 104.303 16.0335 104.818 16.4236C106.181 17.4838 107.737 22.1848 107.908 22.7249C107.838 23.2951 106.06 29.1963 102.566 30.8867C102.485 30.9267 102.404 30.9367 102.323 30.9367Z" fill="#0A0C0C"/>
<path d="M91.2334 32.037C90.688 31.5769 89.4356 23.1751 89.4356 23.1751C89.3952 22.875 89.5972 22.595 89.9002 22.555C90.183 22.505 90.4758 22.715 90.5263 23.0151L91.7788 31.4169C91.8192 31.7169 91.6172 31.997 91.3142 32.037C91.2839 32.037 91.2637 32.037 91.2334 32.037Z" fill="#0A0C0C"/>
<path d="M185.729 135.729C183.063 135.729 180.295 134.939 178.326 134.379C177.285 134.079 176.296 133.799 175.892 133.809C175.245 133.829 174.245 134.109 173.276 134.379C171.357 134.919 169.71 135.379 168.902 134.629C168.68 134.419 168.569 134.149 168.579 133.829C168.63 132.568 170.892 130.588 171.791 129.848C172.124 128.677 173.73 123.406 175.68 122.126C177.811 120.726 183.871 122.926 184.557 123.176C184.84 123.286 184.982 123.596 184.881 123.876C184.77 124.157 184.467 124.307 184.174 124.197C181.8 123.316 177.558 122.216 176.296 123.036C174.831 123.996 173.286 128.607 172.811 130.298C171.034 131.868 169.63 133.438 169.69 133.869C170.013 134.149 171.872 133.629 172.983 133.318C174.064 133.018 175.074 132.728 175.861 132.708C176.477 132.708 177.366 132.948 178.639 133.318C181.729 134.199 186.911 135.679 190.011 133.489C190.264 133.308 190.607 133.368 190.779 133.619C190.951 133.859 190.9 134.199 190.648 134.379C189.234 135.379 187.517 135.729 185.739 135.729H185.729Z" fill="#0A0C0C"/>
<path d="M147.44 177.798H108.939C108.636 177.798 108.383 177.558 108.383 177.248C108.383 176.938 108.636 176.698 108.939 176.698H147.44C147.743 176.698 147.996 176.938 147.996 177.248C147.996 177.558 147.743 177.798 147.44 177.798Z" fill="#0A0C0C"/>
<path d="M322.241 194.821H304.475C304.172 194.821 303.919 194.581 303.919 194.271C303.919 193.961 304.172 193.721 304.475 193.721H322.241C322.544 193.721 322.796 193.961 322.796 194.271C322.796 194.581 322.544 194.821 322.241 194.821Z" fill="#0A0C0C"/>
<path d="M72.4676 274.828H33.8048C33.5018 274.828 33.2493 274.588 33.2493 274.278C33.2493 273.968 33.5018 273.738 33.8048 273.738H72.4676C72.7706 273.738 73.0231 273.978 73.0231 274.278C73.0231 274.578 72.7706 274.828 72.4676 274.828Z" fill="#0A0C0C"/>
<path d="M48.5913 285.34H35.6532C35.3502 285.34 35.0977 285.1 35.0977 284.79C35.0977 284.48 35.3502 284.24 35.6532 284.24H48.5913C48.8943 284.24 49.1468 284.48 49.1468 284.79C49.1468 285.1 48.8943 285.34 48.5913 285.34Z" fill="#0A0C0C"/>
<path d="M370.064 319.818H337.239C336.936 319.818 336.684 319.578 336.684 319.268C336.684 318.958 336.936 318.718 337.239 318.718H370.064C370.367 318.718 370.62 318.958 370.62 319.268C370.62 319.578 370.367 319.818 370.064 319.818Z" fill="#0A0C0C"/>
<path d="M135.441 324.739H102.616C102.313 324.739 102.061 324.499 102.061 324.189C102.061 323.879 102.313 323.639 102.616 323.639H135.441C135.744 323.639 135.997 323.879 135.997 324.189C135.997 324.499 135.744 324.739 135.441 324.739Z" fill="#0A0C0C"/>
<path d="M394.536 266.027H375.367C375.064 266.027 374.811 265.786 374.811 265.476C374.811 265.166 375.064 264.926 375.367 264.926H394.536C394.839 264.926 395.092 265.166 395.092 265.476C395.092 265.786 394.839 266.027 394.536 266.027Z" fill="#0A0C0C"/>
<path d="M378.558 275.599H370.064C369.761 275.599 369.509 275.358 369.509 275.048C369.509 274.738 369.761 274.498 370.064 274.498H378.558C378.861 274.498 379.114 274.738 379.114 275.048C379.114 275.358 378.861 275.599 378.558 275.599Z" fill="#0A0C0C"/>
<path d="M172.417 130.678C171.791 130.168 171.872 129.828 172.124 129.667C172.155 129.647 172.952 129.167 174.033 128.937C175.104 128.707 176.962 129.137 177.174 129.187C177.467 129.257 177.649 129.547 177.578 129.848C177.508 130.148 177.225 130.318 176.912 130.248C176.417 130.128 174.972 129.858 174.255 130.008C173.377 130.188 172.71 130.588 172.71 130.588C172.619 130.648 172.518 130.668 172.417 130.668V130.678Z" fill="#0A0C0C"/>
<path d="M318.564 30.8067H203.848C203.566 30.8067 203.323 30.5867 203.303 30.2966C203.283 30.0066 203.485 29.7565 203.778 29.7165L229.058 26.2158C229.371 24.8055 230.815 20.4145 236.784 20.4145C240.107 20.5646 242.006 21.0447 243.107 21.8448C243.329 20.1745 244.056 17.924 246.097 15.8936C249.268 12.7429 254.611 11.1426 261.974 11.1426C262.57 11.1426 263.176 11.1526 263.812 11.1726C272.266 11.4626 277.861 13.3831 280.447 16.8738C281.578 18.3941 281.942 19.9945 281.982 21.3347C283.325 19.6544 285.658 17.934 289.638 17.934C290.668 17.934 291.769 18.054 292.92 18.2841C301.697 20.0645 302.081 26.0657 301.98 27.9761L318.625 29.6965C318.918 29.7265 319.13 29.9766 319.12 30.2666C319.099 30.5567 318.867 30.7867 318.574 30.7867L318.564 30.8067ZM211.777 29.7165H307.969L301.313 29.0264C300.879 28.0962 302.041 21.2747 292.688 19.3743C291.617 19.1543 290.587 19.0442 289.628 19.0442C284.214 19.0442 282.234 22.575 281.628 24.0853C281.285 25.0155 280.992 25.1455 280.719 25.0555C280.447 24.9655 280.295 24.6854 280.356 24.4154C280.952 22.435 281.305 19.9044 279.548 17.5339C277.174 14.3233 271.862 12.5529 263.762 12.2728C263.135 12.2528 262.539 12.2428 261.954 12.2428C254.894 12.2428 249.824 13.7331 246.864 16.6737C244.501 19.0142 244.117 21.7048 244.107 23.1551C244.319 23.7953 244.157 24.2954 244.137 24.3554C243.077 24.2554 243.016 23.9253 243.006 23.3652C242.743 22.825 241.663 21.7448 237.37 21.5248C230.765 21.1447 230.088 26.5358 230.068 26.7559C229.593 27.246 211.767 29.7065 211.767 29.7065L211.777 29.7165Z" fill="#0A0C0C"/>
<path d="M350.904 92.1198H303.748C303.465 92.1198 303.222 91.8997 303.202 91.6197C303.182 91.3396 303.374 91.0796 303.657 91.0296L317.675 88.619C317.696 87.8489 317.908 86.3486 319.079 85.0383C320.544 83.408 322.917 82.6478 326.341 82.7178C334.058 82.9278 335.502 86.4086 335.765 87.6588L351.016 91.0396C351.288 91.0996 351.47 91.3596 351.44 91.6297C351.409 91.9097 351.177 92.1198 350.894 92.1198H350.904ZM310.141 91.0296H345.915L335.159 88.6491C334.724 87.9689 334.421 84.0381 326.311 83.818C323.059 83.818 321.069 84.4682 319.897 85.7684C318.584 87.2288 318.786 88.9991 318.786 89.0091C318.817 89.2992 318.625 89.5593 318.332 89.6093L310.141 91.0196V91.0296Z" fill="#0A0C0C"/>
<path d="M126.684 104.722H44.026C43.7331 104.722 43.4907 104.502 43.4806 104.212C43.4604 103.922 43.6725 103.672 43.9654 103.632L72.3262 100.312C72.9625 98.9212 75.9016 93.5501 83.6382 93.5501C89.3447 93.5501 91.6677 95.0304 92.5969 96.1406C93.9705 93.18 98.7175 85.3484 109.868 87.1487C114.534 87.8989 117.685 89.6493 119.251 92.3598C120.816 95.0504 120.342 97.901 119.998 99.1513L127.967 100.232C128.27 100.272 128.482 100.552 128.442 100.852C128.401 101.152 128.159 101.372 127.816 101.322L119.2 100.161C118.776 99.3913 120.059 95.9606 118.281 92.91C116.887 90.5095 113.989 88.9391 109.676 88.249C96.9803 86.2285 93.213 97.4809 93.1726 97.591C92.102 97.4909 91.4657 94.6703 83.618 94.6703C75.7703 94.6703 73.2958 100.772 73.2049 101.022C72.7504 101.382 53.3483 103.662 53.3483 103.662H126.664C126.967 103.662 127.22 103.902 127.22 104.212C127.22 104.522 126.967 104.752 126.664 104.752L126.684 104.722Z" fill="#0A0C0C"/>
</g>
<defs>
<clipPath id="clip0_741_787">
<rect width="404" height="331" fill="white" transform="translate(0 0.470215)"/>
</clipPath>
</defs>
</svg>
