<?xml version="1.0" encoding="UTF-8" standalone="no"?>
<svg
   width="130"
   height="129"
   viewBox="0 0 130 129"
   fill="none"
   version="1.1"
   id="svg2"
   sodipodi:docname="colabos-white.svg"
   inkscape:version="1.4 (86a8ad7, 2024-10-11)"
   xmlns:inkscape="http://www.inkscape.org/namespaces/inkscape"
   xmlns:sodipodi="http://sodipodi.sourceforge.net/DTD/sodipodi-0.dtd"
   xmlns="http://www.w3.org/2000/svg"
   xmlns:svg="http://www.w3.org/2000/svg">
  <defs
     id="defs2" />
  <sodipodi:namedview
     id="namedview2"
     pagecolor="#ffffff"
     bordercolor="#000000"
     borderopacity="0.25"
     inkscape:showpageshadow="2"
     inkscape:pageopacity="0.0"
     inkscape:pagecheckerboard="0"
     inkscape:deskcolor="#d1d1d1"
     inkscape:zoom="8.4883721"
     inkscape:cx="65.030137"
     inkscape:cy="64.5"
     inkscape:window-width="2560"
     inkscape:window-height="1334"
     inkscape:window-x="-11"
     inkscape:window-y="-11"
     inkscape:window-maximized="1"
     inkscape:current-layer="svg2" />
  <path
     d="M80.0494 116.156L116.829 104.721C116.314 103.794 115.568 102.996 114.591 102.329C113.615 101.661 112.506 101.325 111.266 101.321H80.0494C77.2678 101.321 75.0528 101.218 73.4044 101.012C71.756 100.806 70.0561 100.394 68.3047 99.7756L59.4962 96.8395C57.8478 96.3243 56.663 95.2941 55.9419 93.7487C55.2207 92.2034 55.1177 90.6065 55.6328 88.9581C56.1479 87.3098 57.1534 86.0982 58.6493 85.3235C60.1452 84.5487 61.7153 84.421 63.3596 84.9402L69.8501 87.1037C71.6015 87.6188 73.5857 88.0309 75.8028 88.34C78.0199 88.6491 81.0323 88.8551 84.84 88.9581H86.5399C86.5399 87.8249 86.2061 86.7431 85.5385 85.7129C84.8709 84.6827 84.0715 84.013 83.1401 83.7039L46.9788 70.4139H37.0885V104.412L80.0494 116.156ZM76.8042 128.21L37.0885 117.084C36.2644 119.762 34.6407 121.926 32.2176 123.574C29.7945 125.222 27.2972 126.047 24.7257 126.047H12.3628C8.96306 126.047 6.05367 124.837 3.63468 122.418C1.21568 119.999 0.00412095 117.088 0 113.684V70.4139C0 67.0141 1.21156 64.1047 3.63468 61.6857C6.0578 59.2667 8.96719 58.0551 12.3628 58.051H46.9788C47.7 58.051 48.4211 58.1293 49.1423 58.2859C49.8635 58.4425 50.5331 58.6218 51.1513 58.8237L87.4671 72.2683C90.8669 73.5046 93.6238 75.6681 95.7379 78.7588C97.8519 81.8495 98.9069 85.2493 98.9028 88.9581H111.266C116.417 88.9581 120.795 90.658 124.401 94.0578C128.007 97.4576 129.81 101.939 129.81 107.502C129.81 109.769 129.216 111.547 128.03 112.837C126.843 114.127 125.015 115.182 122.547 116.002L83.9128 128.056C82.7796 128.468 81.5948 128.674 80.3585 128.674C79.1222 128.674 77.9375 128.519 76.8042 128.21ZM12.3628 113.684H24.7257V70.4139H12.3628V113.684Z"
     fill="#0A0C0C"
     id="path1"
     style="fill:#ffffff" />
  <path
     d="m 92.9115,12.6888 c 0,-6.79959 5.5633,-12.362872 12.3625,-12.362872 6.8,0 12.363,5.563282 12.363,12.362872 0,6.7995 -5.563,12.3628 -12.363,12.3628 -6.7992,0 -12.3625,-5.5633 -12.3625,-12.3628 z m 29.5475,22.1295 c -5.254,-2.2872 -11.003,-3.5853 -17.185,-3.5853 -4.141,0 -8.0973,0.6182 -11.868,1.7308 3.5852,3.3998 5.6869,8.1595 5.6869,13.2901 v 3.5234 H 130 v -3.5234 c 0,-5.0069 -3.091,-9.4576 -7.541,-11.4356 z M 31.0973,25.0516 c 6.7995,0 12.3628,-5.5633 12.3628,-12.3628 0,-6.79959 -5.5633,-12.362872 -12.3628,-12.362872 -6.7996,0 -12.3629,5.563282 -12.3629,12.362872 0,6.7995 5.5633,12.3628 12.3629,12.3628 z m 11.8683,7.9122 C 39.1949,31.8512 35.2388,31.233 31.0973,31.233 c -6.1814,0 -11.9302,1.2981 -17.1844,3.5853 -4.45061,1.978 -7.54132,6.4287 -7.54132,11.4356 v 3.5234 H 37.2787 v -3.5234 c 0,-5.1306 2.1017,-9.8903 5.6869,-13.2901 z M 55.823,12.6888 c 0,-6.79959 5.5633,-12.362872 12.3628,-12.362872 6.7996,0 12.3629,5.563282 12.3629,12.362872 0,6.7995 -5.5633,12.3628 -12.3629,12.3628 -6.7995,0 -12.3628,-5.5633 -12.3628,-12.3628 z M 92.9115,49.7773 H 43.4601 v -3.5234 c 0,-5.0069 3.0907,-9.4576 7.5414,-11.4356 5.2542,-2.2872 11.0029,-3.5853 17.1843,-3.5853 6.1814,0 11.9302,1.2981 17.1844,3.5853 4.4506,1.978 7.5413,6.4287 7.5413,11.4356 z"
     fill="#0a0c0c"
     id="path2"
     sodipodi:nodetypes="ssssscscsccscssssscscsccscsssssccscscsc"
     style="fill:#ffffff" />
</svg>
