<svg width="184" height="243" viewBox="0 0 184 243" fill="none" xmlns="http://www.w3.org/2000/svg">
<path d="M17.3333 167.803C17.3333 187.694 25.235 206.771 39.3002 220.836C53.3655 234.901 72.442 242.803 92.3333 242.803C92.3333 222.912 84.4315 203.835 70.3663 189.77C56.301 175.705 37.2245 167.803 17.3333 167.803ZM37.6666 188.137C53.5833 194.053 66.0833 206.553 71.9999 222.47C64.1471 219.549 57.0158 214.97 51.0913 209.045C45.1667 203.121 40.588 195.989 37.6666 188.137ZM92.3333 242.803C112.224 242.803 131.301 234.901 145.366 220.836C159.431 206.771 167.333 187.694 167.333 167.803C147.442 167.803 128.365 175.705 114.3 189.77C100.235 203.835 92.3333 222.912 92.3333 242.803ZM112.5 222.553C115.358 214.595 119.94 207.368 125.919 201.389C131.898 195.41 139.125 190.828 147.083 187.97C144.151 195.886 139.542 203.074 133.573 209.043C127.604 215.012 120.416 219.621 112.5 222.553Z" fill="#49746F"/>
<path d="M91.9999 37.9702C98.6303 37.9702 104.989 40.6041 109.678 45.2925C114.366 49.9809 117 56.3398 117 62.9702C117 69.6006 114.366 75.9595 109.678 80.6479C104.989 85.3363 98.6303 87.9702 91.9999 87.9702C85.3695 87.9702 79.0107 85.3363 74.3222 80.6479C69.6338 75.9595 66.9999 69.6006 66.9999 62.9702C66.9999 56.3398 69.6338 49.9809 74.3222 45.2925C79.0107 40.6041 85.3695 37.9702 91.9999 37.9702ZM91.9999 0.470215C132.5 0.470215 168.833 25.4702 183.667 62.9702C163.75 113.637 106.583 138.47 55.9166 118.554C30.4999 108.554 10.3333 88.4702 0.333252 62.9702C15.1666 25.4702 51.4999 0.470215 91.9999 0.470215ZM18.4999 62.9702C38.3333 103.554 87.4166 120.387 128 100.47C144.324 92.4899 157.52 79.2938 165.5 62.9702C145.667 22.3869 96.5832 5.55355 55.9999 25.4702C39.6763 33.4505 26.4802 46.6466 18.4999 62.9702ZM66.9999 146.304H50.3333V162.97H66.9999V146.304ZM100.333 146.304H83.6666V162.97H100.333V146.304ZM133.667 146.304H117V162.97H133.667V146.304Z" fill="#49746F"/>
</svg>
