<?xml version="1.0" encoding="UTF-8" standalone="no"?>
<svg
   width="159"
   height="201"
   viewBox="0 0 159 201"
   fill="none"
   version="1.1"
   id="svg2"
   sodipodi:docname="man-white.svg"
   inkscape:version="1.4 (86a8ad7, 2024-10-11)"
   xmlns:inkscape="http://www.inkscape.org/namespaces/inkscape"
   xmlns:sodipodi="http://sodipodi.sourceforge.net/DTD/sodipodi-0.dtd"
   xmlns="http://www.w3.org/2000/svg"
   xmlns:svg="http://www.w3.org/2000/svg">
  <defs
     id="defs2" />
  <sodipodi:namedview
     id="namedview2"
     pagecolor="#ffffff"
     bordercolor="#000000"
     borderopacity="0.25"
     inkscape:showpageshadow="2"
     inkscape:pageopacity="0.0"
     inkscape:pagecheckerboard="0"
     inkscape:deskcolor="#d1d1d1"
     inkscape:zoom="5.4477612"
     inkscape:cx="79.482192"
     inkscape:cy="100.5"
     inkscape:window-width="2560"
     inkscape:window-height="1334"
     inkscape:window-x="-11"
     inkscape:window-y="-11"
     inkscape:window-maximized="1"
     inkscape:current-layer="svg2" />
  <path
     d="m 43.6845,129.122 h 71.6315 c 23.781,0 42.978,19.129 42.978,42.827 V 200.5 H 0.705811 v -28.551 c 0,-23.698 19.197089,-42.827 42.978689,-42.827 z m 0,-85.6532 h 71.6315 v 35.6888 c 0,9.4653 -3.774,18.5429 -10.491,25.2354 -6.7163,6.693 -15.8261,10.453 -25.325,10.453 -9.4989,0 -18.6087,-3.76 -25.3254,-10.453 C 47.4579,97.7005 43.6845,88.6229 43.6845,79.1576 Z m 71.6315,0 c 7.879,0 14.326,6.4239 14.326,14.2755 0,7.8515 -6.447,14.2755 -14.326,14.2755 z m -71.6315,28.551 c -7.8795,0 -14.3263,-6.424 -14.3263,-14.2755 0,-7.8516 6.4468,-14.2755 14.3263,-14.2755 z"
     fill="#f4f9f9"
     id="path1"
     sodipodi:nodetypes="sssccssccscscsccscccscc"
     style="fill:#ffffff" />
  <path
     d="M 45.4038,45.1824 H 38.2407 C 27.496,36.3316 29.3584,22.7698 29.3584,11.3494 c 0,-11.420422 7.1631,-3.71163 14.3262,-3.71163 7.1631,0 14.3263,7.13773 14.3263,7.13773 C 45.4038,14.7755 43.6846,0.5 43.6846,0.5 h 42.9787 c 15.7587,0 28.6527,12.848 28.6527,28.5511 h 7.163 c 0,0 3.581,10.7066 -1.719,17.8444 L 45.547,45.1824 Z"
     fill="#f4f9f9"
     id="path2"
     sodipodi:nodetypes="ccssccsccccc"
     style="fill:#ffffff" />
</svg>
