<svg width="405" height="291" viewBox="0 0 405 291" fill="none" xmlns="http://www.w3.org/2000/svg">
<g clip-path="url(#clip0_741_955)">
<path d="M19.7437 105.199C28.7651 90.7929 44.0944 81.3221 61.1651 79.8605C80.5646 78.2086 108.186 79.2397 139.259 90.6627C165.412 100.284 173.623 84.3355 187.039 81.8327C206.823 78.1385 226.648 87.8996 234.88 106.07L235.072 106.501C237.512 111.897 238.758 117.794 238.383 123.7C237.806 132.941 241.927 151.011 274.246 172.015L301.188 181.616C317.409 187.393 330.591 199.386 337.77 214.884L371.851 288.428L74.5807 290.47L14.6812 197.634C2.74387 179.143 -2.14651 157.058 0.870743 135.334L19.7437 105.199Z" fill="#C3D973"/>
<path d="M405 168.301V154.686L392.921 149.53L387.706 137.436L393.316 125.192L383.828 115.481L371.547 120.727L359.286 116.172L354.122 103.708H340.24L335.127 116.192L322.886 120.967L310.26 115.561L300.662 125.012L305.987 137.196L300.662 149.179L287.094 154.616V168.101L299.902 172.997L305.987 185.19L300.601 197.855L306.524 203.621L312.062 201.579L314.209 205.974L322.674 202.13L335.188 207.666L340.321 220.36H353.899L358.668 207.716L371.081 202.14L383.95 207.876L393.437 197.685L388.253 185.05L393.184 173.177L405.01 168.331L405 168.301ZM347.105 183.238C334.955 183.238 325.093 173.497 325.093 161.473C325.093 149.45 334.945 139.709 347.105 139.709C359.265 139.709 369.117 149.45 369.117 161.473C369.117 173.497 359.265 183.238 347.105 183.238Z" fill="#2AB5B8"/>
<path d="M263.837 166.86C263.837 166.86 250.877 169.022 240.033 166.98C229.19 164.937 224.573 159.932 222.629 153.595C220.695 147.257 218.801 141.13 219.389 133.722C219.966 126.324 220.32 124.061 220.32 124.061C220.32 124.061 215.997 126.354 206.348 124.421C196.698 122.489 193.256 120.016 193.256 120.016C193.256 120.016 191.919 129.577 192.476 139.919C193.033 150.271 196.172 171.755 204.069 181.707C211.967 191.658 218.174 199.917 242.028 199.166C242.028 199.166 239.365 231.133 238.889 250.034C238.413 268.926 238.889 287.707 238.889 287.707H336.008C336.008 287.707 336.656 271.439 336.008 255.521C335.239 236.539 334.388 216.977 332.424 204.402C330.672 193.19 329.103 184.57 316.791 176.23C304.479 167.881 290.264 167.42 290.264 167.42L263.847 166.85L263.837 166.86Z" fill="#49746F"/>
<path d="M267.189 159.942L267.422 162.284L263.959 167.43L264.05 187.003C264.597 186.452 261.134 230.953 260.911 237.24L278.114 187.753L279.531 190.066L290.253 167.43L285.069 162.014L284.108 149.43C284.108 149.43 289.059 151.092 290.79 147.618C292.521 144.134 291.053 140.059 288.077 139.438C285.1 138.818 282.113 141.15 282.113 141.15C282.113 141.15 275.906 133.782 275.491 129.107C275.491 129.107 269.598 136.245 260.992 133.352C260.992 133.352 260.607 147.488 260.83 150.371C261.053 153.264 260.618 159.191 267.189 159.922V159.942Z" fill="#F4F9F9"/>
<path d="M216.543 125.032C216.543 125.032 216.29 115.932 216.371 114.079C216.452 112.217 217.596 110.455 219.662 109.815C221.737 109.184 227.033 106.491 226.83 104.459C226.628 102.426 225.18 100.814 222.983 101.125C220.786 101.435 217.424 102.446 214.518 103.958C211.602 105.46 209.355 106.17 209.355 106.17C209.355 106.17 202.794 98.4317 199.017 95.0879C195.24 91.7441 192.162 91.674 191.221 93.0856C191.221 93.0856 187.92 92.0244 186.796 94.0467C186.796 94.0467 184.224 93.0856 182.473 94.2369C180.721 95.3882 181.369 98.6019 184.893 103.517C188.406 108.433 194.268 111.456 194.997 112.538C195.736 113.619 197.772 118.905 196.668 121.428C196.668 121.428 197.316 123 204.322 124.061C211.319 125.112 216.543 125.022 216.543 125.022V125.032Z" fill="#F4F9F9"/>
<path d="M196.395 118.014C196.395 118.014 193.782 118.565 193.408 119.566C193.043 120.577 196.395 121.728 196.395 121.728V118.014Z" fill="#0A0C0C"/>
<path d="M216.3 121.408L216.584 125.232C216.584 125.232 220.786 125.212 220.29 123.74C219.804 122.269 216.3 121.398 216.3 121.398V121.408Z" fill="#0A0C0C"/>
<path d="M290.183 140.419C290.183 140.419 294.303 135.113 292.501 129.968C290.699 124.832 287.499 121.958 279.389 123.6C279.389 123.6 275.208 118.895 269.963 119.476C264.718 120.056 258.714 122.209 257.509 127.985C256.314 133.762 260.688 138.427 260.688 138.427L260.992 133.361C260.992 133.361 271.421 135.524 275.127 128.866C275.491 129.117 279.339 139.989 282.113 141.16C282.113 141.16 285.201 137.126 290.172 140.419H290.183Z" fill="#0A0C0C"/>
<path d="M272.737 179.013L268.626 184.259L269.507 190.266L262.541 211.58L263.544 197.074L266.946 189.826L266.571 183.488L271.451 176.921L272.737 179.013Z" fill="#F4F9F9"/>
<path d="M272.18 120.036C272.646 119.966 273.071 119.906 273.476 119.836C272.393 119.506 271.208 119.346 269.963 119.486C264.718 120.066 258.714 122.219 257.509 127.995C256.314 133.772 260.688 138.437 260.688 138.437L260.992 133.371C260.992 133.371 261.569 133.492 262.501 133.592C262.541 133.371 258.188 122.039 272.18 120.036Z" fill="#F4F9F9"/>
<path d="M275.481 128.636C275.481 128.636 280.746 138.697 284.857 139.168L281.951 141.38C281.951 141.38 277.415 133.982 275.481 128.636Z" fill="#F4F9F9"/>
<path d="M380.133 205.584C379.941 205.544 376.954 204.142 376.954 204.142C374.645 203.061 372.387 201.99 370.109 200.968C372.762 201.189 375.03 202.25 377.339 203.341L380.032 204.603L382.077 202.56C384.446 200.198 386.897 197.755 389.235 195.302C389.448 195.072 389.539 194.211 389.337 193.75C388.506 191.918 387.626 190.086 386.765 188.304C385.975 186.662 385.185 185.02 384.426 183.368C384.062 182.578 384.001 181.566 384.254 180.836C385.57 177.091 386.826 173.767 388.122 170.674C388.486 169.813 389.347 168.942 390.177 168.612C393.913 167.12 397.659 165.808 400.505 164.827C401.396 164.527 401.639 164.167 401.628 163.226C401.547 159.101 401.547 155.337 401.628 151.722C401.649 150.731 401.365 150.351 400.353 150.01C397.335 148.979 393.771 147.738 390.228 146.296C389.377 145.956 388.496 145.045 388.081 144.094C386.856 141.291 385.661 138.297 384.203 134.363C383.91 133.562 383.91 132.531 384.213 131.86C385.013 130.108 385.844 128.366 386.684 126.634C387.565 124.802 388.446 122.96 389.286 121.108C389.458 120.727 389.347 119.856 389.094 119.586C387.534 117.944 385.904 116.312 384.325 114.74C383.11 113.529 381.895 112.318 380.7 111.086C380.113 110.485 379.738 110.425 378.948 110.816C374.979 112.758 371.648 114.32 368.459 115.731C367.659 116.092 366.535 116.142 365.735 115.852C362.343 114.65 358.962 113.339 355.691 111.967C354.922 111.637 353.919 110.886 353.555 109.995C352.36 107.052 351.186 103.898 349.758 99.7833C349.434 98.8422 349.14 98.4818 348.179 98.4818C344.361 98.5719 340.544 98.582 336.434 98.4818C335.482 98.4218 335.057 98.7421 334.712 99.7533C334.145 101.385 333.548 102.997 332.951 104.609C332.313 106.331 331.675 108.053 331.077 109.785C330.662 110.996 329.974 111.647 328.627 112.117C325.347 113.239 322.198 114.49 319.241 115.832C317.996 116.402 317.044 116.392 315.86 115.802C314.108 114.931 312.336 114.09 310.564 113.249C308.904 112.468 307.253 111.687 305.613 110.876C304.742 110.445 304.337 110.526 303.679 111.206C300.702 114.27 298.019 116.933 295.448 119.336C294.688 120.046 294.719 120.497 295.184 121.418C296.683 124.411 298.434 127.975 300.054 131.63C300.399 132.4 300.368 133.602 299.994 134.473C298.586 137.737 297.047 140.99 295.458 144.144C295.053 144.945 294.212 145.916 293.261 146.276C292.825 146.436 292.39 146.607 291.944 146.767C292.076 145.776 292.501 145.605 292.937 145.445C293.554 145.215 294.263 144.514 294.648 143.743C296.237 140.6 297.756 137.366 299.163 134.112C299.447 133.462 299.477 132.521 299.234 131.97C297.624 128.336 295.883 124.792 294.384 121.798C293.817 120.667 293.686 119.746 294.83 118.675C297.381 116.282 300.065 113.629 303.031 110.576C303.963 109.604 304.803 109.464 306.008 110.065C307.648 110.876 309.288 111.657 310.949 112.428C312.721 113.269 314.503 114.11 316.254 114.981C317.196 115.451 317.854 115.451 318.857 115.001C321.833 113.649 325.023 112.388 328.323 111.256C329.407 110.886 329.883 110.435 330.207 109.484C330.804 107.742 331.452 106.02 332.09 104.288C332.687 102.677 333.285 101.075 333.842 99.4529C334.317 98.0914 335.087 97.5808 336.444 97.5808C340.554 97.6709 344.351 97.6709 348.047 97.5808C349.647 97.5808 350.204 98.3116 350.609 99.483C352.026 103.588 353.19 106.721 354.385 109.655C354.608 110.195 355.317 110.836 356.036 111.136C359.296 112.498 362.657 113.799 366.029 115.001C366.606 115.211 367.487 115.171 368.074 114.901C371.253 113.489 374.574 111.937 378.533 109.995C379.667 109.434 380.477 109.564 381.338 110.445C382.523 111.677 383.738 112.878 384.953 114.09C386.532 115.671 388.172 117.303 389.732 118.955C390.238 119.496 390.42 120.727 390.086 121.448C389.246 123.31 388.365 125.152 387.474 126.994C386.643 128.726 385.813 130.458 385.013 132.21C384.801 132.671 384.811 133.462 385.023 134.042C386.481 137.957 387.666 140.94 388.891 143.723C389.215 144.454 389.924 145.195 390.552 145.455C394.075 146.887 397.629 148.128 400.636 149.16C402.023 149.63 402.55 150.351 402.519 151.732C402.438 155.337 402.438 159.081 402.519 163.205C402.54 164.527 402.044 165.238 400.788 165.668C397.953 166.639 394.227 167.951 390.511 169.433C389.894 169.683 389.225 170.364 388.952 171.014C387.666 174.098 386.411 177.402 385.104 181.136C384.922 181.646 384.983 182.437 385.246 183.008C386.006 184.66 386.785 186.292 387.575 187.924C388.436 189.706 389.327 191.558 390.157 193.39C390.471 194.081 390.42 195.352 389.894 195.913C387.555 198.376 385.094 200.818 382.715 203.191L380.447 205.454C380.356 205.544 380.244 205.584 380.123 205.584H380.133ZM326.207 173.717C321.489 169.332 319.16 163.736 319.16 157.409C319.16 151.272 321.55 145.545 325.873 141.281C330.237 136.976 336.099 134.613 342.397 134.613C355.074 134.643 365.34 144.895 365.33 157.469C365.33 163.796 362.991 169.372 358.587 173.597C362.192 168.912 364.429 163.556 364.429 157.469C364.429 145.385 354.578 135.534 342.448 135.504C336.342 135.504 330.693 137.777 326.511 141.911C322.35 146.016 320.061 151.512 320.061 157.409C320.061 163.496 322.289 168.872 326.511 172.957C326.43 173.677 326.319 173.717 326.197 173.717H326.207Z" fill="#0A0C0C"/>
<path d="M216.564 125.683C215.987 124.041 214.873 113.068 216.969 111.206C218.801 109.584 220.553 108.794 222.102 108.093C222.679 107.832 223.236 107.582 223.763 107.302C225.676 106.291 226.618 104.979 226.355 103.708C226.112 102.576 224.927 101.695 223.469 101.575C220.361 101.305 215.328 103.988 211.653 105.93C208.15 107.782 199.888 104.859 199.533 104.729C202.125 104.709 208.555 106.561 210.873 105.33C215.207 103.037 220.158 100.414 223.53 100.684C225.383 100.834 226.901 101.996 227.225 103.518C227.397 104.318 227.428 106.361 224.178 108.073C223.631 108.363 223.054 108.623 222.467 108.884C220.897 109.584 219.287 110.315 217.556 111.847C216.23 113.018 216.513 120.637 216.999 125.162C216.584 125.653 216.574 125.653 216.554 125.653L216.564 125.683Z" fill="#0A0C0C"/>
<path d="M196.638 122.169C196.202 121.588 197.124 114.039 193.884 112.227C190.674 110.425 180.751 102.106 181.207 95.8989C181.288 94.8376 181.855 93.9667 182.766 93.5262C183.931 92.9555 185.49 93.1357 186.837 94.0067C188.963 95.3783 195.433 102.036 196.364 103.007C197.64 103.237 206.023 104.899 208.747 110.315C205.254 105.38 196.162 103.868 196.071 103.858C195.747 103.648 188.497 96.1491 186.34 94.7475C185.267 94.0568 184.042 93.8866 183.161 94.3171C182.533 94.6274 182.159 95.2081 182.098 95.9589C181.703 101.355 190.593 109.364 194.319 111.447C198.085 113.549 197.113 121.438 197.073 121.768C197.043 121.989 196.85 122.159 196.627 122.159L196.638 122.169Z" fill="#0A0C0C"/>
<path d="M203.857 105.98C199.037 100.925 191.737 93.5162 190.006 93.2158C187.869 92.8254 187.029 94.5073 186.988 94.5774C186.573 93.376 187.9 91.9444 190.158 92.3348C192.739 92.7853 203.016 103.958 204.181 105.24C204.059 105.95 203.958 105.98 203.847 105.98H203.857Z" fill="#0A0C0C"/>
<path d="M209.344 106.621C208.96 106.411 204.646 101.415 203.634 100.434C203.128 99.9435 202.54 99.3228 201.892 98.642C199.786 96.4094 197.154 93.6363 195.018 92.8954C192.466 92.0144 191.605 93.3159 191.595 93.3359C190.876 92.7853 192.081 90.9432 195.311 92.0645C197.66 92.8754 200.374 95.7387 202.551 98.0413C203.188 98.7121 203.766 99.3228 204.262 99.8133C205.305 100.824 209.506 105.7 209.689 105.9C209.557 106.601 209.446 106.631 209.344 106.631V106.621Z" fill="#0A0C0C"/>
<path d="M251.1 36.4211C252.345 34.7592 253.895 33.9583 255.504 33.2075C254.3 34.7492 252.761 35.5401 251.323 36.3611C251.252 36.4011 251.181 36.4211 251.1 36.4211ZM260.466 32.0361C261.914 30.5545 263.574 29.9738 265.224 29.4632C263.868 30.8148 262.227 31.3854 260.638 32.0061C260.587 32.0261 260.526 32.0361 260.476 32.0361H260.466ZM316.315 31.3153C314.513 30.7447 312.863 30.2441 311.243 29.8136C313.106 29.3931 314.786 29.8937 316.457 30.4443C316.68 31.1952 316.508 31.3153 316.315 31.3153ZM270.348 28.9626C271.937 27.6812 273.659 27.3308 275.349 27.0405C273.831 28.2018 272.14 28.5522 270.459 28.9526C270.419 28.9526 270.388 28.9626 270.348 28.9626ZM306.322 28.6122C304.54 28.2518 302.829 27.9415 301.158 27.6912C302.981 27.0605 304.712 27.3708 306.423 27.7312C306.727 28.4721 306.545 28.6122 306.332 28.6122H306.322ZM280.554 27.2107C282.214 26.1394 283.966 26.0193 285.697 25.9492C284.016 26.9103 282.285 27.0304 280.594 27.2107C280.574 27.2107 280.564 27.2107 280.544 27.2107H280.554ZM296.075 27.0905C294.324 26.9403 292.592 26.8402 290.891 26.8002C292.633 25.9492 294.384 26.0493 296.116 26.1995C296.501 26.9103 296.308 27.0905 296.075 27.0905Z" fill="#0A0C0C"/>
<path d="M358.486 107.963C358.05 107.392 358.506 105.53 358.881 102.406C359.387 105.69 358.941 107.542 358.921 107.622C358.871 107.822 358.688 107.963 358.486 107.963ZM359.762 97.8011C359.367 96.1292 359.397 94.8677 359.407 93.6063C359.407 93.1658 359.407 92.7053 359.397 92.2447C360.308 92.6953 360.308 93.1558 360.308 93.6063C360.308 94.8878 360.278 96.1592 360.217 97.3806C360.207 97.6209 360.005 97.8011 359.772 97.8011H359.762ZM359.579 87.5594C358.982 85.457 358.779 83.7551 358.516 82.0932C359.67 83.6349 359.883 85.3569 360.035 87.0689C359.61 87.5494 359.6 87.5494 359.589 87.5494L359.579 87.5594ZM357.959 77.4379C357.129 75.4356 356.673 73.7837 356.157 72.1919C357.534 73.5435 358 75.2154 358.395 76.8973C358.02 77.4379 357.99 77.4379 357.959 77.4379ZM354.831 67.6868C353.768 65.8347 353.039 64.2729 352.279 62.7812C353.859 63.8925 354.588 65.4643 355.246 67.0661C354.942 67.6668 354.881 67.6768 354.831 67.6768V67.6868ZM350.143 58.5564C348.857 56.8945 347.885 55.4829 346.862 54.1414C348.614 54.9623 349.606 56.404 350.528 57.8756C350.305 58.5364 350.224 58.5564 350.143 58.5564ZM343.967 50.3471C342.519 48.9455 341.314 47.7141 340.068 46.5227C341.962 47.0834 343.167 48.3348 344.301 49.6062C344.179 50.307 344.068 50.3471 343.967 50.3471ZM336.515 43.249C334.702 41.9375 333.73 41.2868 332.789 40.6661L332.06 40.1855C332.556 39.4447 333.285 39.9252 333.285 39.9252C334.247 40.5559 335.229 41.2067 336.18 41.9575C336.778 43.1889 336.646 43.239 336.515 43.239V43.249Z" fill="#0A0C0C"/>
<path d="M324.466 42.8384C323.139 42.8384 321.803 42.488 320.598 41.7472C318.927 40.726 317.763 39.1142 317.307 37.222C316.862 35.3299 317.186 33.3776 318.219 31.7258C319.251 30.0739 320.882 28.9226 322.795 28.472C324.719 28.0315 326.683 28.3519 328.354 29.3731C330.024 30.3942 331.199 31.9961 331.644 33.8982C332.09 35.7904 331.766 37.7426 330.733 39.3945C329.336 41.617 326.926 42.8384 324.466 42.8384ZM324.496 29.1829C324 29.1829 323.504 29.2429 323.008 29.3531C321.327 29.7435 319.899 30.7546 318.998 32.2063C318.087 33.658 317.804 35.3699 318.198 37.0318C318.593 38.6937 319.616 40.1053 321.084 40.9963C324.122 42.8484 328.101 41.9173 329.974 38.934C330.885 37.4823 331.169 35.7704 330.774 34.1085C330.379 32.4466 329.356 31.035 327.888 30.1339C326.855 29.5032 325.691 29.1728 324.496 29.1728V29.1829Z" fill="#0A0C0C"/>
<path d="M250.796 168.391C240.125 168.391 229.676 166.039 225.129 159.321C222.841 155.937 221.211 151.862 220.138 146.867C218.629 139.839 218.538 131.73 219.864 124.011C219.449 131.77 219.54 139.769 221.019 146.687C222.062 151.572 223.651 155.547 225.869 158.83C231.771 167.55 249.429 168.882 264.323 166.339C260.192 167.951 255.464 168.401 250.786 168.401L250.796 168.391Z" fill="#0A0C0C"/>
<path d="M236.955 199.857C220.614 199.857 212.23 192.479 207.239 186.682C189.024 165.528 191.585 129.927 192.8 119.516C192.486 129.937 189.945 165.228 207.917 186.101C213.283 192.328 222.618 200.418 241.967 198.746C240.266 199.787 238.565 199.857 236.945 199.857H236.955Z" fill="#0A0C0C"/>
<path d="M215.369 125.723C212.362 125.723 208.727 125.292 206.246 124.872C201.417 124.071 192.385 121.908 192.79 119.486C192.942 118.635 194.552 117.714 196.719 117.714C194.704 118.605 193.742 119.426 193.681 119.636C193.56 120.367 197.934 122.579 206.398 123.991C214.863 125.402 219.733 124.732 219.854 123.991C219.874 123.901 219.905 123.06 216.24 121.808C219.55 121.998 220.927 123.04 220.735 124.141C220.533 125.322 218.224 125.713 215.359 125.713L215.369 125.723Z" fill="#0A0C0C"/>
<path d="M390.025 288.438H30.6787C30.6787 287.547 390.025 287.547 390.025 287.547C390.481 288.238 390.278 288.438 390.025 288.438Z" fill="#0A0C0C"/>
<path d="M284.857 162.695C284.411 162.274 283.662 149.46 283.662 149.46C284.563 149.41 285.312 162.224 285.312 162.224C284.877 162.695 284.867 162.695 284.857 162.695Z" fill="#0A0C0C"/>
<path d="M268.393 160.422C266.044 160.422 263.625 160.112 262.096 157.839C260.486 155.456 260.455 152.333 260.425 149.57C260.425 148.959 260.415 148.368 260.385 147.798C260.314 145.926 260.526 133.862 260.536 133.351C261.438 133.491 261.215 145.906 261.286 147.758C261.306 148.338 261.316 148.939 261.316 149.55C261.346 152.313 261.377 155.166 262.835 157.329C264.384 159.631 267.097 159.561 269.72 159.491C270.054 159.491 270.388 159.471 270.712 159.471C272.94 159.441 274.752 159.251 276.412 158.87C274.894 160.132 273.021 160.332 270.722 160.362C270.398 160.362 270.064 160.372 269.73 160.382C269.284 160.392 268.829 160.402 268.373 160.402L268.393 160.422Z" fill="#0A0C0C"/>
<path d="M286.335 150.371C285.09 150.371 283.844 149.98 282.791 149.19C285.191 149.86 287.732 149.81 289.534 148.329C291.651 146.587 291.934 143.473 290.172 141.391C289.322 140.379 288.117 139.759 286.791 139.639C285.434 139.508 284.168 139.919 283.146 140.76C282.477 141.311 281.961 142.031 281.667 142.822C281.171 141.571 281.779 140.72 282.568 140.069C283.773 139.068 285.292 138.597 286.872 138.738C288.441 138.878 289.858 139.619 290.861 140.81C292.936 143.273 292.602 146.947 290.101 149.009C289.008 149.91 287.671 150.371 286.335 150.371Z" fill="#0A0C0C"/>
<path d="M267.422 162.735C266.976 162.294 266.956 159.972 266.956 159.972C267.857 159.972 267.877 162.294 267.877 162.294C267.432 162.745 267.422 162.745 267.422 162.745V162.735Z" fill="#0A0C0C"/>
<path d="M290.183 140.86C292.208 137.366 292.997 133.291 291.985 129.767C291.165 126.914 289.322 124.892 286.781 124.081C285.444 123.65 283.915 123.51 282.214 123.69C281.283 123.781 279.48 123.861 279.41 123.861C279.389 122.97 281.222 122.89 282.123 122.799C283.946 122.629 285.606 122.759 287.054 123.23C289.879 124.141 291.934 126.384 292.845 129.527C293.939 133.321 293.078 137.736 290.709 140.5C290.426 140.82 290.304 140.86 290.183 140.86Z" fill="#0A0C0C"/>
<path d="M277.202 126.554C276.848 125.833 279.035 123.1 279.035 123.1C279.744 123.65 277.557 126.384 277.557 126.384C277.465 126.494 277.334 126.554 277.202 126.554Z" fill="#0A0C0C"/>
<path d="M282.113 141.611C278.245 137.846 275.967 131.88 275.238 129.767C273.689 131.409 268.839 135.584 260.891 133.812C270.236 134.993 274.853 128.876 275.046 128.616C275.866 128.826 278.326 136.635 282.437 140.86C282.336 141.571 282.224 141.611 282.113 141.611Z" fill="#0A0C0C"/>
<path d="M238.869 288.167C238.423 242.385 239.79 210.97 242.727 188.844C240.691 211.05 239.325 242.435 239.325 287.727C239.325 287.967 239.122 288.167 238.869 288.167Z" fill="#0A0C0C"/>
<path d="M279.774 190.907C279.389 190.697 271.34 177.602 271.34 177.602L264.333 187.363C263.513 187.113 263.372 167.62 263.372 167.62C263.453 167.37 267.037 162.044 267.037 162.044C267.847 162.174 271.583 175.9 271.583 175.9L284.725 161.724C285.383 161.724 290.557 167.13 290.557 167.13C290.638 167.62 280.159 190.647 280.159 190.647C279.764 190.907 279.764 190.907 279.754 190.907H279.774ZM271.937 176.851L279.723 189.505L289.727 167.52L285.09 162.675L271.947 176.851H271.937ZM264.283 167.75L264.414 185.721L270.884 176.701L267.249 163.345L264.293 167.74L264.283 167.75Z" fill="#0A0C0C"/>
<path d="M260.911 238.751C260.547 238.661 260.405 238.411 260.476 238.181C263.26 228.94 277.536 188.013 277.678 187.603C278.387 188.304 264.121 229.21 261.336 238.431C261.276 238.621 261.103 238.751 260.911 238.751Z" fill="#0A0C0C"/>
<path d="M259.554 288.168C259.109 264.961 260.445 238.551 260.465 238.291C260.638 227.048 264.121 186.612 264.151 186.202C265.012 186.682 261.529 227.098 261.367 238.321C261.356 238.601 260.01 264.991 260.01 287.727C260.01 287.967 259.807 288.168 259.564 288.168H259.554Z" fill="#0A0C0C"/>
<path d="M260.699 138.878C260.263 138.597 253.368 129.137 259.868 123.23C265.963 117.694 273.79 117.634 279.339 123.09C273.517 118.625 266.196 118.695 260.476 123.891C254.573 129.257 260.992 138.087 261.063 138.167C260.891 138.848 260.79 138.878 260.699 138.878Z" fill="#0A0C0C"/>
<path d="M336.332 288.168C335.887 287.056 336.332 221.301 330.268 195.662C324.274 170.303 290.567 167.901 290.223 167.881C290.628 167.01 324.992 169.452 331.138 195.462C337.223 221.201 336.788 287.066 336.778 287.727C336.778 287.967 336.575 288.168 336.332 288.168Z" fill="#0A0C0C"/>
<path d="M305.107 288.167C305.289 248.823 301.796 199.927 301.755 199.437C302.687 199.867 306.19 248.803 305.562 287.727C305.562 287.967 305.36 288.167 305.117 288.167H305.107Z" fill="#0A0C0C"/>
<path d="M241.491 39.4045C241.491 56.7743 227.256 70.8503 209.689 70.8503C192.122 70.8503 177.886 56.7743 177.886 39.4045C177.886 22.0348 192.122 7.95874 209.689 7.95874C227.256 7.95874 241.491 22.0348 241.491 39.4045Z" fill="#EA5A4C"/>
<path d="M209.689 78.3288C187.981 78.3288 170.313 60.8689 170.313 39.3945C170.313 17.9201 187.981 0.470215 209.689 0.470215C231.397 0.470215 249.065 17.9301 249.065 39.4045C249.065 60.879 231.397 78.3388 209.689 78.3388V78.3288ZM209.689 1.58148C188.598 1.58148 171.437 18.5508 171.437 39.4045C171.437 60.2582 188.598 77.2276 209.689 77.2276C230.779 77.2276 247.941 60.2582 247.941 39.4045C247.941 18.5508 230.779 1.58148 209.689 1.58148Z" fill="#0A0C0C"/>
<path d="M205.993 33.6879C205.993 38.9539 202.905 42.2577 198.015 42.2577C193.124 42.2577 190.046 38.9639 190.046 33.6879C190.046 28.4119 193.134 25.1682 198.015 25.1682C202.895 25.1682 205.993 28.462 205.993 33.6879ZM194.643 33.6879C194.643 36.5812 195.898 38.3532 198.015 38.3532C200.131 38.3532 201.386 36.5812 201.386 33.6879C201.386 30.7946 200.131 29.0626 198.015 29.0626C195.898 29.0626 194.643 30.7946 194.643 33.6879ZM223.155 25.2884L202.864 53.4804H196.071L216.361 25.2884H223.155ZM229.331 45.0709C229.331 50.3369 226.243 53.6406 221.363 53.6406C216.483 53.6406 213.394 50.3469 213.394 45.0709C213.394 39.7949 216.483 36.5512 221.363 36.5512C226.243 36.5512 229.331 39.8449 229.331 45.0709ZM217.981 45.0709C217.981 47.9642 219.247 49.7362 221.353 49.7362C223.459 49.7362 224.734 47.9642 224.734 45.0709C224.734 42.1776 223.479 40.4456 221.353 40.4456C219.226 40.4456 217.981 42.1776 217.981 45.0709Z" fill="#F4F9F9"/>
<path d="M88.0977 51.0178L125.084 51.0178C128.031 51.0178 130.42 48.6557 130.42 45.7418V23.4164C130.42 20.5026 128.031 18.1404 125.084 18.1404L88.0977 18.1404C85.1507 18.1404 82.7618 20.5026 82.7618 23.4164V45.7418C82.7618 48.6557 85.1507 51.0178 88.0977 51.0178Z" fill="#2AB5B8"/>
<path d="M94.1624 20.3028C95.2154 18.5107 96.9468 18.5107 98.0099 20.3028L106.13 34.0584C107.193 35.8505 106.333 37.3121 104.247 37.3121H87.9254C85.8296 37.3121 84.9791 35.8505 86.0422 34.0584L94.1726 20.3028H94.1624Z" fill="#F4F9F9"/>
<path d="M39.8723 148.389C40.3279 147.938 40.3279 75.8661 40.3279 75.8661C40.3279 70.1996 45.1069 65.5844 50.9895 65.5844H159.671C159.671 64.6934 50.9895 64.6934 50.9895 64.6934C44.6108 64.6934 39.4268 69.7091 39.4268 75.8761V147.958C39.4268 148.208 39.6293 148.409 39.8824 148.409L39.8723 148.389Z" fill="#0A0C0C"/>
<path d="M88.8367 38.6135C88.3912 37.8527 88.4824 36.8816 89.0797 35.8704L97.2101 22.1148C97.8075 21.1036 98.6276 20.553 99.5186 20.553C100.41 20.553 101.24 21.1136 101.837 22.1148L109.957 35.8704C110.555 36.8816 110.636 37.8527 110.19 38.6135C109.745 39.3744 108.854 39.7949 107.669 39.7949H91.3477C90.1631 39.7949 89.2721 39.3744 88.8266 38.6135H88.8367ZM97.9897 22.5553L89.8594 36.3109C89.4341 37.0317 89.3531 37.6825 89.6265 38.163C89.8998 38.6336 90.5175 38.8939 91.3579 38.8939H107.679C108.52 38.8939 109.137 38.6336 109.411 38.163C109.684 37.6925 109.603 37.0317 109.178 36.3109L101.058 22.5553C100.632 21.8344 100.086 21.434 99.5287 21.434C98.9719 21.434 98.4251 21.8344 97.9999 22.5553H97.9897Z" fill="#0A0C0C"/>
<path d="M85.7487 47.0533H117.207C120.761 47.0533 123.657 44.1901 123.657 40.6761V19.6522C123.657 16.1382 120.761 13.2749 117.207 13.2749H81.5468C77.9929 13.2749 75.0972 16.1382 75.0972 19.6522V36.9518C75.9983 36.9518 75.9983 19.6522 75.9983 19.6522C75.9983 16.6287 78.489 14.1659 81.5468 14.1659H117.207C120.265 14.1659 122.756 16.6287 122.756 19.6522V40.6761C122.756 43.6995 120.265 46.1623 117.207 46.1623H85.7487C85.293 46.8531 85.4955 47.0533 85.7487 47.0533Z" fill="#0A0C0C"/>
<path d="M154.943 216.016L170.232 147.267C170.232 147.267 182.463 165.198 183.06 183.318C183.657 201.449 170.232 214.193 154.943 216.016Z" fill="#7D8C45"/>
<path d="M145.597 257.953C145.597 257.953 155.247 254.589 154.366 246.03C153.485 237.47 148.473 230.422 143.076 225.036C137.68 219.65 126.249 208.827 115.01 205.013C115.01 205.013 116.508 217.537 119.009 226.247C121.51 234.957 124.639 247.461 131.564 254.289C138.48 261.117 145.597 257.953 145.597 257.953Z" fill="#7D8C45"/>
<path d="M170.171 255.901C170.171 255.901 164.045 252.617 164.622 244.588C165.189 236.569 170.282 231.553 180.134 224.175C189.985 216.796 208.474 211 208.474 211C208.474 211 205.386 220.991 203.917 225.106C202.449 229.221 195.352 246.851 188.558 253.118C181.764 259.385 175.517 260.336 170.171 255.891V255.901Z" fill="#7D8C45"/>
<path d="M147.521 220.461C147.521 220.461 162.81 151.712 163.64 151.582C176.347 173.077 179.688 190.416 173.583 203.101C166.374 218.058 148.22 220.971 147.967 221.001C147.845 221.001 147.724 220.951 147.521 220.461ZM148.554 220C151.834 219.329 166.536 215.655 172.763 202.72C178.646 190.507 175.507 173.798 163.438 153.034L148.544 220H148.554Z" fill="#0A0C0C"/>
<path d="M174.434 256.171C179.162 256.171 183.89 253.048 188.568 246.81C181.005 255.39 174.11 257.563 167.356 252.737C162.466 249.243 160.633 244.908 161.899 239.863C165.362 226.067 190.522 210.86 204.495 208.537C203.928 210.589 202.014 217.207 199.058 224.755C203.472 215.935 205.527 208.177 205.548 208.096C191.008 209.498 164.612 225.306 161.018 239.642C159.651 245.079 161.605 249.734 166.82 253.458C169.351 255.27 171.882 256.161 174.423 256.161L174.434 256.171Z" fill="#0A0C0C"/>
<path d="M130.987 260.897C115.374 252.477 110.302 209.859 110.686 207.566C124.75 211.981 149.161 233.385 150.316 248.382C150.741 253.899 148.119 258.083 142.519 260.816C140.454 261.828 138.439 262.328 136.495 262.328C134.551 262.328 132.759 261.848 130.997 260.897H130.987ZM131.422 260.106C134.723 261.888 138.328 261.858 142.114 260.006C147.349 257.453 149.799 253.558 149.415 248.442C148.311 233.996 125.034 213.433 111.091 208.637C111.831 214.294 117.288 252.477 131.422 260.106Z" fill="#0A0C0C"/>
<path d="M153.708 286.636C166.506 242.676 190.147 220.35 190.39 220.13C189.53 219.7 165.706 242.205 153.272 286.075C153.627 286.636 153.667 286.646 153.708 286.646V286.636Z" fill="#0A0C0C"/>
<path d="M147.967 286.636C148.422 286.175 147.319 257.252 147.319 257.252C146.418 257.292 147.511 286.205 147.511 286.205C147.511 286.446 147.724 286.636 147.967 286.636Z" fill="#0A0C0C"/>
<path d="M147.39 240.073C147.845 239.642 148.412 220.571 148.412 220.571C147.511 220.551 146.944 239.612 146.944 239.612C147.39 240.073 147.39 240.073 147.4 240.073H147.39Z" fill="#0A0C0C"/>
<path d="M140.444 286.766C148.402 240.333 120.285 217.427 120.001 217.207C119.718 218.128 147.42 240.724 139.998 286.255C140.393 286.776 140.424 286.776 140.444 286.776V286.766Z" fill="#0A0C0C"/>
<path d="M128.537 96.7699C128.537 100.344 131.463 103.237 135.088 103.237C138.712 103.237 141.628 100.344 141.628 96.7699C141.628 93.1958 138.702 90.2925 135.088 90.2925C131.473 90.2925 128.537 93.1858 128.537 96.7699Z" fill="#EA5A4C"/>
<path d="M133.741 119.606C133.741 123.18 136.667 126.073 140.292 126.073C143.917 126.073 146.833 123.18 146.833 119.606C146.833 116.032 143.907 113.138 140.292 113.138C136.677 113.138 133.741 116.032 133.741 119.606Z" fill="#EA5A4C"/>
<path d="M132.506 151.672C132.506 155.246 135.432 158.14 139.047 158.14C142.661 158.14 145.597 155.246 145.597 151.672C145.597 148.098 142.671 145.195 139.047 145.195C135.422 145.195 132.506 148.088 132.506 151.672Z" fill="#EA5A4C"/>
<path d="M57.1152 98.7121H116.772C116.772 97.821 57.1152 97.821 57.1152 97.821C56.6596 98.5118 56.8621 98.7121 57.1152 98.7121Z" fill="#0A0C0C"/>
<path d="M57.1152 108.653H116.772C116.772 107.762 57.1152 107.762 57.1152 107.762C56.6596 108.453 56.8621 108.653 57.1152 108.653Z" fill="#0A0C0C"/>
<path d="M130.511 103.347C130.511 99.533 133.65 96.4294 137.508 96.4294C141.365 96.4294 144.504 99.533 144.504 103.347C144.504 107.162 141.365 110.265 137.508 110.265C133.65 110.265 130.511 107.162 130.511 103.347ZM131.422 103.347C131.422 106.671 134.156 109.374 137.518 109.374C140.879 109.374 143.613 106.671 143.613 103.347C143.613 100.024 140.879 97.3205 137.518 97.3205C134.156 97.3205 131.422 100.024 131.422 103.347Z" fill="#0A0C0C"/>
<path d="M57.1152 125.493H116.772C116.772 124.602 57.1152 124.602 57.1152 124.602C56.6596 125.292 56.8621 125.493 57.1152 125.493Z" fill="#0A0C0C"/>
<path d="M57.1152 135.434H116.772C116.772 134.543 57.1152 134.543 57.1152 134.543C56.6596 135.234 56.8621 135.434 57.1152 135.434Z" fill="#0A0C0C"/>
<path d="M130.511 130.128C130.511 126.313 133.65 123.21 137.508 123.21C141.365 123.21 144.504 126.313 144.504 130.128C144.504 133.942 141.365 137.046 137.508 137.046C133.65 137.046 130.511 133.942 130.511 130.128ZM131.422 130.128C131.422 133.452 134.156 136.155 137.518 136.155C140.879 136.155 143.613 133.452 143.613 130.128C143.613 126.804 140.879 124.101 137.518 124.101C134.156 124.101 131.422 126.804 131.422 130.128Z" fill="#0A0C0C"/>
<path d="M57.1152 152.093H116.772C116.772 151.202 57.1152 151.202 57.1152 151.202C56.6596 151.892 56.8621 152.093 57.1152 152.093Z" fill="#0A0C0C"/>
<path d="M57.1152 162.034H116.772C116.772 161.143 57.1152 161.143 57.1152 161.143C56.6596 161.834 56.8621 162.034 57.1152 162.034Z" fill="#0A0C0C"/>
<path d="M130.511 156.728C130.511 152.914 133.65 149.81 137.508 149.81C141.365 149.81 144.504 152.914 144.504 156.728C144.504 160.542 141.365 163.646 137.508 163.646C133.65 163.646 130.511 160.542 130.511 156.728ZM131.422 156.728C131.422 160.052 134.156 162.755 137.518 162.755C140.879 162.755 143.613 160.052 143.613 156.728C143.613 153.404 140.879 150.701 137.518 150.701C134.156 150.701 131.422 153.404 131.422 156.728Z" fill="#0A0C0C"/>
</g>
<defs>
<clipPath id="clip0_741_955">
<rect width="405" height="290" fill="white" transform="translate(0 0.470215)"/>
</clipPath>
</defs>
</svg>
