<svg width="168" height="168" viewBox="0 0 168 168" fill="none" xmlns="http://www.w3.org/2000/svg">
<path d="M17.3334 0.469727C12.9131 0.469727 8.67391 2.22567 5.5483 5.35128C2.42269 8.47689 0.666748 12.7161 0.666748 17.1364V75.4697C0.666748 80.0531 2.50008 84.2197 5.58341 87.3031L80.5834 162.303C83.5834 165.303 87.7501 167.136 92.3334 167.136C96.9168 167.136 101.083 165.303 104.083 162.22L162.417 103.886C165.5 100.886 167.333 96.7197 167.333 92.1364C167.333 87.5531 165.417 83.3031 162.417 80.3031L87.4168 5.30306C84.4168 2.30306 80.2501 0.469727 75.6668 0.469727H17.3334ZM75.6668 17.1364L150.667 92.1364L92.3334 150.47L17.3334 75.4697V17.1364H75.6668ZM38.1668 25.4697C34.8515 25.4697 31.6721 26.7867 29.3279 29.1309C26.9837 31.4751 25.6667 34.6545 25.6667 37.9697C25.6667 41.2849 26.9837 44.4644 29.3279 46.8086C31.6721 49.1528 34.8515 50.4697 38.1668 50.4697C41.482 50.4697 44.6614 49.1528 47.0056 46.8086C49.3498 44.4644 50.6668 41.2849 50.6668 37.9697C50.6668 34.6545 49.3498 31.4751 47.0056 29.1309C44.6614 26.7867 41.482 25.4697 38.1668 25.4697ZM75.2501 71.3031C65.8334 71.3031 58.1667 78.9697 58.1667 88.3864C58.1667 93.1364 60.0834 97.3031 63.1668 100.47L92.3334 129.636L121.5 100.47C124.583 97.3864 126.5 93.0531 126.5 88.3864C126.5 86.143 126.058 83.9215 125.2 81.8489C124.341 79.7762 123.083 77.893 121.496 76.3067C119.91 74.7203 118.027 73.462 115.954 72.6035C113.882 71.7449 111.66 71.3031 109.417 71.3031C104.833 71.3031 100.417 73.2197 97.3334 76.3031L92.3334 81.3031L87.3334 76.3864C84.2501 73.2197 79.8334 71.3031 75.2501 71.3031Z" fill="#49746F"/>
</svg>
