<?xml version="1.0" encoding="UTF-8" standalone="no"?>
<svg
   width="103"
   height="131"
   viewBox="0 0 103 131"
   fill="none"
   version="1.1"
   id="svg3"
   sodipodi:docname="woman-white.svg"
   inkscape:version="1.4 (86a8ad7, 2024-10-11)"
   xmlns:inkscape="http://www.inkscape.org/namespaces/inkscape"
   xmlns:sodipodi="http://sodipodi.sourceforge.net/DTD/sodipodi-0.dtd"
   xmlns="http://www.w3.org/2000/svg"
   xmlns:svg="http://www.w3.org/2000/svg">
  <defs
     id="defs3" />
  <sodipodi:namedview
     id="namedview3"
     pagecolor="#ffffff"
     bordercolor="#000000"
     borderopacity="0.25"
     inkscape:showpageshadow="2"
     inkscape:pageopacity="0.0"
     inkscape:pagecheckerboard="0"
     inkscape:deskcolor="#d1d1d1"
     inkscape:zoom="8.3587786"
     inkscape:cx="51.442922"
     inkscape:cy="65.5"
     inkscape:window-width="2560"
     inkscape:window-height="1334"
     inkscape:window-x="-11"
     inkscape:window-y="-11"
     inkscape:window-maximized="1"
     inkscape:current-layer="svg3" />
  <path
     d="M28.2034 84.0712H74.7968C90.2658 84.0712 102.753 96.5141 102.753 111.928V130.5H0.247314V111.928C0.247314 96.5141 12.7343 84.0712 28.2034 84.0712ZM28.2034 28.3569H74.7968V51.5712C74.7968 57.728 72.3423 63.6327 67.9733 67.9862C63.6043 72.3397 57.6787 74.7855 51.5001 74.7855C45.3214 74.7855 39.3958 72.3397 35.0268 67.9862C30.6578 63.6327 28.2034 57.728 28.2034 51.5712V28.3569Z"
     fill="#0A0C0C"
     id="path1"
     style="fill:#ffffff" />
  <path
     d="M79.4563 27.7071V23.7143C79.4563 13.5 71.0695 5.14286 60.819 5.14286L56.1596 0.5H42.1816C31.931 0.5 23.5442 8.85714 23.5442 19.0714V27.7071C23.5442 40.0571 18.6053 51.85 9.93895 60.5786L4.90686 65.5929L11.8027 69.0286C18.8849 72.5571 27.3649 71.1643 32.8629 65.5929H70.1376C75.7288 71.1643 84.2088 72.5571 91.1979 69.0286L98.0937 65.5929L93.0616 60.5786C88.7375 56.2589 85.3103 51.1324 82.9758 45.4921C80.6413 39.8518 79.4454 33.8083 79.4563 27.7071Z"
     fill="#0A0C0C"
     id="path2"
     style="fill:#ffffff" />
  <path
     d="M56.1597 0.5C56.1597 0.5 60.819 0.5 60.819 5.14286H56.1597V0.5Z"
     fill="#0A0C0C"
     id="path3"
     style="fill:#ffffff" />
</svg>
