<svg width="405" height="310" viewBox="0 0 405 310" fill="none" xmlns="http://www.w3.org/2000/svg">
<g clip-path="url(#clip0_741_860)">
<path d="M399.664 68.3729C398.196 54.6823 391.422 42.6629 381.49 37.1787C378.199 35.3673 374.564 34.1763 370.717 34.2264C355.317 34.4265 312.913 -32.7256 265.751 21.8568C243 48.1772 221.15 44.4143 206.59 36.358C192.031 28.3018 174.656 26.9607 158.8 32.0447C138.763 38.4697 71.8672 69.5738 62.3801 76.5292C41.4517 91.8712 51.3134 149.826 40.7632 184.673C38.5458 192.009 37.3207 199.595 37.1384 207.251L34.7793 306.838L330.763 309.47L390.4 190.097C402.276 166.319 407.146 137.927 404.149 109.995L399.674 68.3729H399.664Z" fill="#C3D973"/>
<path d="M232.207 140.599C232.207 140.599 242.403 146.984 242.767 158.013L232.672 159.544L234.272 152.428C234.272 152.428 234.647 143.381 232.197 140.599H232.207Z" fill="#F4F9F9"/>
<path d="M89.0697 80.2722H210.934C224.451 80.2722 235.416 91.1206 235.416 104.471V171.923C235.416 185.284 224.441 196.122 210.934 196.122H89.0697C75.5528 196.122 64.5874 185.274 64.5874 171.923V104.481C64.5874 91.1206 75.5629 80.2822 89.0697 80.2822V80.2722Z" fill="#F4F9F9"/>
<path d="M325.539 233.351H264.141C258.068 233.351 253.145 238.217 253.145 244.22V282.269C253.145 288.272 258.068 293.138 264.141 293.138H325.539C331.612 293.138 336.535 288.272 336.535 282.269V244.22C336.535 238.217 331.612 233.351 325.539 233.351Z" fill="#49746F"/>
<path d="M284.158 208.572C282.508 204.308 279.339 197.543 275.592 192.049C271.846 186.555 264.293 176.187 263.159 175.366L260.314 180.4L257.327 187.155L259.949 209.382L230.718 205.94C230.718 205.94 216.807 206.82 209.476 216.118C202.156 225.415 203.057 228.898 199.26 235.963C195.463 243.029 194.643 245.621 189.489 244.46C184.336 243.299 183.971 239.726 182.797 236.053C181.622 232.39 173.775 208.902 173.219 207.141C173.219 207.141 167.599 202.707 157.92 204.318C148.24 205.93 144.423 211.884 144.423 211.884C144.423 211.884 148.777 237.885 152.381 246.962C155.986 256.039 162.618 277.275 186.857 277.675C186.857 277.675 200.181 278.006 207.37 272.832C207.897 273.152 205.133 301.994 203.594 308.449H270.216C270.216 308.449 266.318 290.015 268.373 274.703C270.429 259.391 270.682 238.715 270.429 235.693C270.307 234.302 270.196 232.06 269.983 229.608C272.059 230.449 277.162 231.409 281.546 226.296C286.801 220.171 285.788 212.815 284.138 208.562L284.158 208.572Z" fill="#2AB5B8"/>
<path d="M166.749 203.988C166.749 203.988 167.781 194.291 167.913 193.53C168.045 192.78 168.723 188.296 167.326 185.064C165.929 181.821 165.635 178.799 163.083 178.439C160.522 178.078 159.55 178.218 158.871 179.129C158.193 180.04 158.588 182.492 159.297 183.933C159.995 185.374 162.587 190.238 160.016 192.049C157.434 193.86 156.603 192.369 156.3 190.058C156.006 187.746 155.672 183.402 156.705 181.681C157.737 179.96 159.357 178.298 159.297 176.827C159.246 175.356 157.869 173.875 156.006 174.145C154.133 174.415 152.958 175.376 152.958 175.376C152.958 175.376 147.035 175.366 145.699 180.54C145.699 180.54 141.983 183.412 141.406 188.116C140.829 192.82 141.78 198.104 142.307 200.125C142.823 202.147 145.041 207.721 146.306 209.162C146.306 209.162 150.832 205.52 154.447 204.889C158.061 204.259 166.749 203.968 166.749 203.968V203.988Z" fill="#F4F9F9"/>
<path d="M227.438 170.462C227.438 170.462 223.894 184.943 223.55 186.865C223.206 188.786 221.829 195.151 229.655 196.482C229.655 196.482 230.526 193.45 232.5 191.619C234.475 189.787 236.044 188.586 236.044 188.586C236.044 188.586 241.319 189.577 242.544 185.154C243.769 180.73 239.851 178.799 238.434 178.538C237.016 178.268 235.629 177.658 235.629 177.658C235.629 177.658 228.663 173.705 227.448 170.472L227.438 170.462Z" fill="#F4F9F9"/>
<path d="M227.661 170.462C227.661 170.462 225.352 164.458 227.661 160.485C229.969 156.501 234.141 155.26 237.573 155.3C241.005 155.341 247.364 156.882 251.262 160.475C251.262 160.475 259.585 162.376 261.934 166.219C264.283 170.052 262.946 174.415 262.48 175.746C262.005 177.077 259.149 182.462 259.008 183.683C259.008 183.683 258.481 184.763 261.043 186.855C263.604 188.947 266.692 191.649 267.229 196.142C267.776 200.636 267.644 208.352 260.182 211.194C252.71 214.036 245.41 209.783 244.539 208.762C243.871 208.692 236.145 211.894 231.974 206.8C227.792 201.707 229.898 195.482 230.86 194.081C231.822 192.68 234.13 189.667 235.73 188.827C235.73 188.827 240.509 190.007 242.018 186.315C243.526 182.622 241.714 179.8 240.094 178.909C238.464 178.018 236.976 178.288 236.976 178.288C236.976 178.288 229.281 175.546 227.661 170.482V170.462Z" fill="#0A0C0C"/>
<path d="M70.6726 261.153C70.6726 261.153 76.9805 250.004 85.3944 241.427C93.8082 232.851 102.384 228.948 102.384 228.948C102.384 228.948 102.273 239.846 89.6266 250.294C76.9805 260.742 70.6726 261.163 70.6726 261.163V261.153Z" fill="#C3D973"/>
<path d="M71.0775 211.804C71.0775 211.804 71.0168 201.877 68.931 196.132C66.8453 190.388 61.9954 184.383 58.0872 182.792C58.0872 182.792 58.1378 188.586 61.2563 196.132C64.3748 203.678 71.0877 212.064 71.0877 212.064V211.804H71.0775Z" fill="#C3D973"/>
<path d="M74.9351 212.065C74.9351 212.065 89.3936 205.63 95.8533 198.784C102.313 191.939 104.298 187.976 104.885 186.315C105.472 184.653 106.242 179.95 106.242 179.95C106.242 179.95 96.4203 183.903 87.6116 193.7C78.8028 203.498 75.1274 210.273 74.9452 212.075L74.9351 212.065Z" fill="#49746F"/>
<path d="M75.9578 229.238C75.9578 229.238 91.4085 225.895 99.1845 220.801C106.95 215.707 110.99 209.032 111.112 207.601C111.112 207.601 100.217 209.553 90.72 216.708C81.2228 223.864 75.9578 229.238 75.9578 229.238Z" fill="#49746F"/>
<path d="M64.1823 273.072C64.1823 273.072 63.1698 259.331 57.682 248.483C52.1943 237.644 47.3241 232.921 47.3241 232.921C47.3241 232.921 43.2134 240.807 48.8226 252.996C54.4319 265.176 64.1823 273.072 64.1823 273.072Z" fill="#49746F"/>
<path d="M70.4092 285.942C70.4092 285.942 85.7182 278.936 92.8665 271.341C100.015 263.745 102.769 256.129 102.262 252.996C102.262 252.996 90.9832 258.15 83.1161 267.858C75.249 277.555 70.2168 284.191 70.3991 285.952L70.4092 285.942Z" fill="#C3D973"/>
<path d="M55.9406 273.682C55.9406 273.682 51.3135 263.264 43.1325 255.538C34.9616 247.812 26.649 241.127 23.7533 240.547C23.7533 240.547 23.0546 251.405 35.2148 261.153C47.3749 270.9 55.9406 273.682 55.9406 273.682Z" fill="#C3D973"/>
<path d="M53.9562 297.871C53.9562 297.871 42.6466 289.014 36.4197 281.268C30.1929 273.522 26.0315 262.514 26.0315 262.514C26.0315 262.514 37.9486 265.576 44.621 276.134C51.3035 286.692 53.9562 298.181 53.9562 298.181V297.871Z" fill="#49746F"/>
<path d="M235.234 105.812C235.234 91.7712 224.016 80.2722 210.316 80.2722H89.3024C75.6033 80.2722 64.3848 91.7611 64.3848 105.812V110.055H235.234V105.812Z" fill="#0A0C0C"/>
<path d="M190.866 96.1845C190.866 99.1568 188.426 101.579 185.419 101.579C182.412 101.579 179.962 99.1668 179.962 96.1845C179.962 93.2022 182.402 90.8003 185.419 90.8003C188.436 90.8003 190.866 93.2122 190.866 96.1845Z" fill="#F4F9F9"/>
<path d="M207.431 96.1845C207.431 99.1568 204.991 101.579 201.974 101.579C198.956 101.579 196.526 99.1668 196.526 96.1845C196.526 93.2022 198.966 90.8003 201.974 90.8003C204.981 90.8003 207.431 93.2122 207.431 96.1845Z" fill="#F4F9F9"/>
<path d="M223.995 96.1845C223.995 99.1568 221.555 101.579 218.538 101.579C215.521 101.579 213.091 99.1668 213.091 96.1845C213.091 93.2022 215.531 90.8003 218.538 90.8003C221.545 90.8003 223.995 93.2122 223.995 96.1845Z" fill="#EA5A4C"/>
<path d="M1.51592 138.913L10.2802 132.383C11.4364 131.522 13.0812 131.75 13.9528 132.893L20.5595 141.555C21.4311 142.698 21.2002 144.324 20.044 145.186L11.2798 151.716C10.1236 152.577 8.47874 152.349 7.60718 151.206L1.00042 142.543C0.128868 141.401 0.365849 139.783 1.51394 138.927L1.51592 138.913Z" fill="#0A0C0C"/>
<path d="M12.3829 127.929L13.9826 116.981C13.9826 116.981 12.6664 116.821 11.907 117.381C11.2286 117.881 4.79923 122.675 3.3716 123.736C3.11848 123.926 2.90585 124.156 2.73373 124.426C2.49073 124.817 2.1971 125.427 2.08573 126.228C1.8731 127.699 0.688477 135.975 0.688477 135.975L10.773 128.139C10.773 128.139 11.4007 127.679 12.3829 127.929Z" fill="#EA5A4C"/>
<path d="M104.976 119.773H85.9917V138.538H104.976V119.773Z" fill="#EA5A4C"/>
<path d="M93.9194 160.765H74.9351V179.529H93.9194V160.765Z" fill="#0A0C0C"/>
<path d="M152.979 284.151C152.979 289.765 148.382 294.308 142.702 294.308C137.022 294.308 132.425 289.765 132.425 284.151C132.425 278.536 137.022 273.993 142.702 273.993C148.382 273.993 152.979 278.536 152.979 284.151Z" fill="#EA5A4C"/>
<path d="M188.031 278.176C186.735 278.176 185.409 278.126 184.042 278.006L182.635 277.856C175.426 276.895 169.047 273.802 164.177 268.889C156.553 261.203 152.796 250.594 150.123 241.217C147.217 231.029 145.8 222.763 144.008 212.305C144.129 211.404 147.491 204.709 159.276 203.658C169.877 202.717 173.431 206.67 173.573 206.84C173.664 207.001 183.789 237.564 183.789 237.564C184.589 240.016 185.348 242.338 187.606 243.609C189.803 244.85 192.557 244.56 194.613 242.868C196.597 241.227 197.711 238.835 198.774 236.313C199.29 235.072 199.807 233.821 200.313 232.56C201.953 228.527 203.654 224.354 205.78 220.491C208.19 216.128 212.058 212.275 216.958 209.352C221.008 206.941 228.379 205.76 231.366 205.369C231.65 205.339 231.873 205.519 231.903 205.77C231.933 206.03 231.751 206.27 231.498 206.3C229.22 206.6 221.464 207.771 217.455 210.163C212.696 212.995 208.95 216.718 206.621 220.941C204.515 224.754 202.834 228.898 201.204 232.911C200.688 234.172 200.181 235.423 199.665 236.674C198.602 239.206 197.387 241.818 195.23 243.589C192.861 245.54 189.692 245.871 187.14 244.43C184.558 242.979 183.718 240.376 182.888 237.855L179.374 227.216L172.803 207.391C172.317 206.92 168.723 203.768 159.378 204.589C148.999 205.519 145.446 211.054 144.929 211.964C146.742 222.573 148.159 230.809 151.045 240.957C153.687 250.214 157.383 260.682 164.855 268.218C169.573 272.982 175.76 275.984 182.746 276.905L184.133 277.055C222.345 280.217 231.417 236.754 231.498 236.313C231.549 236.053 231.812 235.893 232.055 235.943C232.308 235.993 232.48 236.243 232.429 236.493C232.338 236.924 223.702 278.156 188.021 278.156L188.031 278.176Z" fill="#0A0C0C"/>
<path d="M275.835 274.253C275.349 274.023 275.289 273.732 275.441 273.522L297.503 241.177C297.655 240.957 297.948 240.907 298.161 241.047C298.384 241.197 298.434 241.487 298.293 241.697L276.23 274.043C276.139 274.183 275.987 274.253 275.835 274.253Z" fill="#F4F9F9"/>
<path d="M304.013 274.253C303.497 273.943 303.487 273.642 303.669 273.462L319.251 257.16L303.679 241.768C303.497 241.588 303.497 241.287 303.679 241.097C303.872 240.907 304.165 240.907 304.358 241.097L320.254 256.809C320.436 256.99 320.436 257.28 320.254 257.47L304.358 274.103C304.266 274.203 304.135 274.253 304.013 274.253Z" fill="#F4F9F9"/>
<path d="M87.9356 308.93H41.7959C41.5327 308.93 41.3201 308.72 41.3201 308.459C41.3201 308.199 41.5327 307.989 41.7959 307.989H87.9356C88.1988 307.989 88.4114 308.199 88.4114 308.459C88.4114 308.72 88.1988 308.93 87.9356 308.93Z" fill="#0A0C0C"/>
<path d="M55.9407 274.163C21.3233 258.501 23.1863 241.217 23.2775 240.497C44.9956 250.554 56.2647 273.262 56.3761 273.492C56.2647 274.083 56.1128 274.173 55.9407 274.173V274.163ZM24.1988 241.307C24.2495 244.67 26.1833 259.571 55.0801 273.072C52.883 268.969 42.2618 250.574 24.1988 241.307Z" fill="#0A0C0C"/>
<path d="M70.4093 286.422C69.5993 285.431 82.4277 262.163 102.04 252.446C102.819 253.537 104.581 270.73 70.6118 286.372C70.5511 286.402 70.4802 286.412 70.4093 286.412V286.422ZM101.797 253.627C84.9691 262.303 73.3051 280.988 70.8143 285.241C99.7516 271.721 101.746 256.979 101.797 253.627Z" fill="#0A0C0C"/>
<path d="M54.3916 298.652C54.1081 298.562 53.1765 297.891 53.1765 297.891C48.0331 294.118 30.8509 280.448 25.5657 262.644C26.2947 262.073 46.4434 265.396 54.8573 298.061C54.5839 298.622 54.4827 298.652 54.3916 298.652ZM26.7199 263.154C32.2583 280.518 49.6936 294.148 53.5917 297.02C46.1296 269.729 30.375 264.105 26.7199 263.154Z" fill="#0A0C0C"/>
<path d="M63.8483 273.542C38.141 248.723 46.3625 233.161 46.727 232.51C61.8335 247.152 64.3141 268.669 64.6583 272.832C64.0306 273.522 63.9395 273.552 63.8483 273.552V273.542ZM47.294 233.571C46.0891 236.644 42.2112 251.045 63.6458 272.201C63.1092 266.857 60.3248 247.372 47.294 233.571Z" fill="#0A0C0C"/>
<path d="M68.9006 232.991C68.7082 232.951 67.6755 232.5 67.6755 232.5C34.6477 216.968 36.1766 200.085 36.2576 199.375C57.8644 209.363 68.8702 231.38 69.3259 232.31C69.1436 232.941 69.0221 232.991 68.8905 232.991H68.9006ZM37.1992 200.195C37.3106 203.548 39.5179 218.129 67.8476 231.53C65.2759 226.766 54.918 209.272 37.1992 200.195Z" fill="#0A0C0C"/>
<path d="M70.8548 212.535C70.3587 212.215 57.8442 197.013 57.6113 182.802C58.8162 182.552 72.0293 187.616 71.5535 211.814C71.1181 212.475 70.9865 212.535 70.8548 212.535ZM58.5935 183.542C59.1503 195.402 68.1616 207.821 70.6118 210.994C70.7435 191.208 61.226 184.903 58.5935 183.542Z" fill="#0A0C0C"/>
<path d="M74.5302 212.905C74.0543 212.365 74.2062 211.364 74.2062 211.364C77.1019 205.96 87.8142 188.116 106.009 179.109C106.778 180.2 108.327 197.253 74.7327 212.855C74.6719 212.885 74.601 212.895 74.5302 212.895V212.905ZM75.1377 211.584C103.437 198.234 105.634 183.652 105.756 180.3C88.3103 189.247 77.9828 206.37 75.1377 211.584Z" fill="#0A0C0C"/>
<path d="M70.6826 262.314C71.1585 259.161 82.2859 238.365 102.171 228.517C102.941 229.608 104.49 246.671 70.8851 262.274C70.8244 262.304 70.7535 262.314 70.6826 262.314ZM101.908 229.708C84.2602 238.765 73.7505 256.489 71.2597 261.053C99.5895 247.652 101.787 233.061 101.908 229.708Z" fill="#0A0C0C"/>
<path d="M75.8465 229.778C75.3504 228.597 92.0465 211.354 111.061 206.851C111.537 208.011 108.712 222.853 76.2008 229.668C76.0085 229.758 75.9174 229.778 75.8465 229.778ZM110.494 207.971C94.4562 212.085 80.2103 225.185 76.697 228.597C103.802 222.743 109.461 211.004 110.494 207.971Z" fill="#0A0C0C"/>
<path d="M62.9573 308.93C62.6434 308.9 62.451 308.66 62.4814 308.399L74.0543 212.375C74.0847 212.115 74.3074 211.955 74.5808 211.965C74.844 211.995 75.0263 212.235 74.9959 212.485L63.423 308.51C63.3927 308.75 63.1902 308.92 62.9472 308.92L62.9573 308.93Z" fill="#0A0C0C"/>
<path d="M57.5606 308.93C57.3075 308.93 57.0948 308.729 57.0847 308.479L55.4647 273.702C55.4546 273.442 55.6571 273.222 55.9203 273.212C56.1937 273.212 56.4063 273.412 56.4165 273.662L58.0365 308.439C58.0466 308.699 57.8441 308.92 57.5808 308.93H57.5606Z" fill="#0A0C0C"/>
<path d="M54.7255 308.89C54.4724 308.89 54.2598 308.69 54.2497 308.429L53.9155 298.191C53.9155 297.931 54.118 297.711 54.3813 297.701C54.6243 297.691 54.8673 297.901 54.8774 298.161L55.2115 308.399C55.2115 308.66 55.009 308.88 54.7458 308.89H54.7255Z" fill="#0A0C0C"/>
<path d="M68.7792 308.89C68.4957 308.88 68.2932 308.66 68.3033 308.399L69.4171 285.872C69.4272 285.612 69.6398 285.462 69.9132 285.422C70.1765 285.432 70.379 285.652 70.3688 285.912L69.2551 308.44C69.245 308.69 69.0323 308.89 68.7792 308.89Z" fill="#0A0C0C"/>
<path d="M65.9744 280.468C65.5086 280.107 63.5849 272.382 63.5849 272.382C63.5241 272.131 63.676 271.871 63.9291 271.811C64.1924 271.751 64.4455 271.901 64.5063 272.151L66.4401 279.877C66.5009 280.128 66.349 280.388 66.0959 280.448C66.0554 280.458 66.0149 280.458 65.9845 280.458L65.9744 280.468Z" fill="#0A0C0C"/>
<path d="M68.0096 266.967C67.5641 266.807 67.4628 266.527 67.5843 266.287L69.9435 261.503C70.0548 261.273 70.3383 261.173 70.5813 261.283C70.8243 261.393 70.9155 261.683 70.8041 261.913L68.445 266.697C68.364 266.867 68.1918 266.967 68.0197 266.967H68.0096Z" fill="#0A0C0C"/>
<path d="M70.1562 247.422C69.6803 246.992 68.4248 232.57 68.4248 232.57C68.4046 232.31 68.5969 232.08 68.8602 232.06C69.0931 232.02 69.3563 232.23 69.3765 232.49L70.6422 246.912C70.6624 247.172 70.47 247.402 70.2068 247.422C70.1967 247.422 70.1764 247.422 70.1663 247.422H70.1562Z" fill="#0A0C0C"/>
<path d="M72.981 223.884C72.5152 223.493 70.389 212.145 70.389 212.145C70.3383 211.894 70.5105 211.644 70.7737 211.594C71.0471 211.544 71.28 211.714 71.3306 211.974L73.4467 223.333C73.4973 223.593 73.3252 223.834 73.062 223.884C73.0316 223.884 73.0012 223.884 72.9708 223.884H72.981Z" fill="#0A0C0C"/>
<path d="M71.2901 239.696C70.8547 239.556 70.7535 239.276 70.8547 239.036L75.2287 228.978C75.33 228.738 75.6135 228.627 75.8565 228.728C76.0995 228.828 76.2109 229.108 76.1096 229.348L71.7356 239.406C71.6546 239.586 71.4825 239.686 71.3002 239.686L71.2901 239.696Z" fill="#0A0C0C"/>
<path d="M237.239 188.826C236.581 188.826 235.902 188.706 235.244 188.466C234.151 188.066 233.229 187.345 232.571 186.395C232.419 186.184 232.48 185.884 232.693 185.734C232.905 185.584 233.209 185.644 233.351 185.854C233.898 186.645 234.667 187.235 235.578 187.576C238.008 188.476 240.742 187.265 241.663 184.853C242.109 183.682 242.068 182.422 241.552 181.281C241.036 180.14 240.094 179.279 238.909 178.839C237.381 178.268 235.68 178.508 234.373 179.499C234.161 179.659 233.867 179.619 233.705 179.409C233.543 179.199 233.584 178.909 233.796 178.749C235.366 177.568 237.411 177.268 239.254 177.958C242.18 179.049 243.668 182.291 242.565 185.194C241.704 187.435 239.537 188.826 237.239 188.826Z" fill="#0A0C0C"/>
<path d="M229.645 196.943C226.81 196.683 224.816 195.662 223.692 193.891C221.596 190.598 223.297 185.974 223.368 185.784L227.185 170.342C227.246 170.092 227.489 169.922 227.762 169.992C228.015 170.052 228.177 170.312 228.116 170.562L224.279 186.054C224.249 186.154 222.659 190.488 224.502 193.39C225.464 194.891 227.205 195.772 229.686 196.002C229.949 196.022 230.141 196.252 230.121 196.513C230.101 196.753 229.888 196.943 229.645 196.943Z" fill="#0A0C0C"/>
<path d="M203.604 308.93C203.199 308.82 203.067 308.56 203.148 308.309C204.019 305.747 207.421 282.159 207.421 272.542C207.421 272.281 207.633 272.071 207.897 272.071C208.16 272.071 208.372 272.281 208.372 272.542C208.372 281.699 205.051 305.637 204.049 308.61C203.978 308.81 203.796 308.93 203.593 308.93H203.604Z" fill="#0A0C0C"/>
<path d="M272.757 231.029C271.907 231.029 271.077 230.909 270.297 230.669C270.044 230.589 269.902 230.329 269.983 230.079C270.064 229.828 270.337 229.698 270.58 229.768C273.01 230.519 276.058 229.888 278.721 228.067C290.679 219.891 283.338 205.009 275.613 192.96C271.897 187.165 267.563 181.341 262.379 175.176C262.207 174.976 262.238 174.676 262.44 174.515C262.643 174.355 262.946 174.375 263.108 174.575C268.323 180.78 272.676 186.625 276.413 192.459C281.526 200.436 293.514 219.11 279.258 228.848C277.152 230.289 274.884 231.029 272.757 231.029Z" fill="#0A0C0C"/>
<path d="M270.226 308.93C269.72 308.399 266.105 292.107 267.938 274.403C271.775 237.354 270.196 217.499 262.825 210.023C262.642 209.833 262.642 209.533 262.825 209.353C263.007 209.172 263.321 209.182 263.493 209.353C271.188 217.159 272.798 236.634 268.879 274.493C267.067 292.037 270.651 308.189 270.692 308.349C270.753 308.6 270.591 308.86 270.327 308.91C270.287 308.91 270.256 308.91 270.226 308.91V308.93Z" fill="#0A0C0C"/>
<path d="M332.708 308.93H120.67C120.406 308.93 120.194 308.72 120.194 308.459C120.194 308.199 120.406 307.989 120.67 307.989H332.708C332.971 307.989 333.183 308.199 333.183 308.459C333.183 308.72 332.971 308.93 332.708 308.93Z" fill="#0A0C0C"/>
<path d="M239.588 210.243C238.94 210.243 238.241 210.193 237.492 210.063C233.341 209.373 228.977 206.12 229.179 199.035C229.392 191.409 235.74 188.406 235.801 188.376C236.044 188.266 236.328 188.376 236.439 188.606C236.55 188.847 236.439 189.127 236.206 189.237C235.963 189.347 230.324 192.039 230.131 199.065C229.908 207.211 235.821 208.832 237.644 209.132C243.172 210.033 245.238 206.891 245.319 206.761C245.45 206.54 245.754 206.47 245.977 206.61C246.2 206.751 246.27 207.041 246.139 207.261C246.048 207.401 244.225 210.243 239.588 210.243Z" fill="#0A0C0C"/>
<path d="M254.816 212.465C250.452 212.465 246.24 211.084 244.033 208.912C243.84 208.732 243.84 208.432 244.033 208.242C244.215 208.052 244.529 208.052 244.711 208.242C246.807 210.293 250.928 211.614 255.13 211.514C258.906 211.454 262.126 210.313 263.969 208.392C266.075 206.19 267.178 202.477 266.966 198.194C266.844 195.702 266.308 193.53 265.356 191.739C264.566 190.248 263.311 189.257 261.984 188.206C261.205 187.586 260.395 186.945 259.666 186.185C259.129 185.624 258.582 184.934 258.532 184.063C258.471 182.982 259.109 181.801 259.625 180.86C259.909 180.32 260.283 179.589 260.283 179.589C260.759 178.669 261.265 177.708 261.64 176.737C262.723 173.935 263.037 171.243 262.592 168.751C261.579 163.217 251.292 160.945 251.181 160.915C246.058 156.501 237.431 153.97 231.518 157.192C225.838 160.274 227.286 166.799 227.347 167.08C227.347 167.48 227.377 174.135 237.867 178.078C238.11 178.168 238.241 178.439 238.14 178.689C238.049 178.929 237.765 179.049 237.522 178.959C226.365 174.776 226.395 167.49 226.395 167.18C226.385 167.18 224.755 159.794 231.052 156.371C237.3 152.979 246.321 155.551 251.495 160.034C252.771 160.324 262.45 162.726 263.513 168.591C263.999 171.253 263.665 174.105 262.521 177.077C262.126 178.098 261.62 179.079 261.124 180.03L260.749 180.75C259.99 182.151 259.423 183.202 259.473 184.013C259.504 184.583 259.939 185.104 260.344 185.544C261.022 186.255 261.802 186.875 262.561 187.476C263.908 188.546 265.305 189.647 266.186 191.309C267.209 193.22 267.786 195.522 267.907 198.154C268.039 200.816 267.776 205.77 264.647 209.042C262.632 211.154 259.159 212.395 255.13 212.455C255.028 212.455 254.917 212.455 254.816 212.455V212.465Z" fill="#0A0C0C"/>
<path d="M339.269 252.176C338.722 251.735 338.793 251.445 339.015 251.305C339.906 250.755 340.797 250.164 341.658 249.564C341.871 249.414 342.174 249.464 342.326 249.674C342.478 249.884 342.428 250.184 342.215 250.334C341.334 250.955 340.423 251.555 339.522 252.116C339.441 252.166 339.36 252.186 339.269 252.186V252.176ZM346.235 247.042C345.698 246.682 345.718 246.391 345.921 246.211C347.267 245.04 348.594 243.779 349.839 242.468C350.011 242.278 350.325 242.268 350.517 242.448C350.71 242.628 350.72 242.929 350.538 243.119C349.272 244.45 347.936 245.731 346.559 246.932C346.467 247.012 346.356 247.052 346.245 247.052L346.235 247.042ZM353.768 239.146C353.261 238.885 353.231 238.585 353.393 238.385C354.497 236.994 355.57 235.513 356.572 234.012C356.714 233.792 357.018 233.731 357.24 233.882C357.463 234.022 357.524 234.322 357.372 234.532C356.349 236.063 355.266 237.554 354.142 238.976C354.051 239.096 353.909 239.156 353.768 239.156V239.146ZM359.822 230.089C359.357 229.898 359.276 229.618 359.407 229.388C360.278 227.827 361.108 226.206 361.868 224.574C361.979 224.334 362.262 224.234 362.495 224.344C362.738 224.454 362.84 224.734 362.728 224.975C361.959 226.626 361.118 228.267 360.237 229.848C360.146 230.009 359.984 230.089 359.822 230.089ZM364.419 220.231C364.004 220.111 363.882 219.841 363.974 219.59C364.622 217.899 365.209 216.178 365.725 214.477C365.806 214.226 366.059 214.076 366.323 214.166C366.576 214.236 366.717 214.507 366.647 214.757C366.12 216.478 365.523 218.219 364.865 219.931C364.794 220.121 364.611 220.241 364.419 220.241V220.231ZM367.608 209.843C367.244 209.773 367.082 209.523 367.143 209.262C367.548 207.531 367.912 205.74 368.206 203.958C368.246 203.698 368.479 203.528 368.753 203.568C369.016 203.608 369.188 203.858 369.147 204.108C368.844 205.91 368.489 207.711 368.074 209.463C368.024 209.683 367.821 209.823 367.608 209.823V209.843ZM369.39 199.125C369.087 199.095 368.884 198.864 368.915 198.604C369.097 196.793 369.218 194.981 369.269 193.22C369.269 192.96 369.502 192.73 369.765 192.76C370.028 192.76 370.231 192.99 370.221 193.25C370.16 195.041 370.038 196.873 369.856 198.704C369.836 198.944 369.623 199.135 369.38 199.135L369.39 199.125ZM369.755 188.276C369.502 188.276 369.289 188.076 369.279 187.816C369.218 185.994 369.097 184.183 368.925 182.432C368.894 182.171 369.087 181.941 369.35 181.911C369.674 181.881 369.846 182.081 369.876 182.332C370.049 184.113 370.18 185.944 370.231 187.786C370.231 188.046 370.028 188.266 369.765 188.276H369.755ZM368.682 177.468C367.912 175.296 367.548 173.515 367.122 171.783C367.062 171.533 367.214 171.273 367.477 171.213C367.73 171.153 367.993 171.313 368.054 171.563C368.479 173.315 368.854 175.116 369.158 176.917C369.198 177.178 369.026 177.418 368.763 177.458C368.742 177.458 368.712 177.458 368.682 177.458V177.468ZM366.12 166.92C365.118 164.868 364.49 163.167 363.822 161.515C363.72 161.275 363.842 160.995 364.085 160.905C364.338 160.815 364.611 160.925 364.703 161.165C365.381 162.836 366.009 164.568 366.566 166.309C366.647 166.559 366.505 166.82 366.252 166.9C366.201 166.91 366.15 166.92 366.11 166.92H366.12ZM362.04 156.842C360.815 154.97 359.944 153.379 359.022 151.828C358.891 151.608 358.962 151.317 359.195 151.177C359.417 151.047 359.711 151.117 359.843 151.347C360.774 152.909 361.655 154.53 362.465 156.161C362.576 156.391 362.485 156.682 362.242 156.792C362.171 156.822 362.1 156.842 362.03 156.842H362.04ZM356.461 147.494C355.043 145.843 353.94 144.402 352.765 143.001C352.603 142.801 352.623 142.501 352.836 142.34C353.039 142.18 353.342 142.2 353.504 142.401C354.689 143.822 355.813 145.283 356.846 146.754C356.997 146.964 356.937 147.264 356.724 147.414C356.643 147.474 356.542 147.505 356.451 147.505L356.461 147.494ZM349.475 139.128C347.875 137.707 346.559 136.456 345.192 135.265C344.999 135.095 344.979 134.795 345.151 134.594C345.323 134.404 345.627 134.374 345.83 134.554C347.217 135.765 348.563 137.036 349.829 138.327C350.011 138.518 350.011 138.818 349.819 138.998C349.728 139.088 349.606 139.128 349.485 139.128H349.475ZM341.243 131.952C339.522 130.792 338.023 129.751 336.484 128.77C336.261 128.63 336.201 128.34 336.342 128.119C336.484 127.899 336.778 127.839 337.001 127.979C338.56 128.97 340.079 130.021 341.526 131.112C341.739 131.272 341.78 131.562 341.618 131.772C341.526 131.892 341.385 131.962 341.233 131.962L341.243 131.952ZM332.039 126.068C330.257 125.167 328.617 124.347 326.936 123.576C326.703 123.466 326.592 123.186 326.703 122.945C326.815 122.705 327.088 122.605 327.341 122.715C329.032 123.496 330.693 124.327 332.262 125.177C332.495 125.307 332.576 125.587 332.454 125.818C332.363 125.978 332.201 126.058 332.039 126.058V126.068Z" fill="#0A0C0C"/>
<path d="M314.017 111.787C313.156 109.715 312.579 108.014 311.809 106.393C311.698 106.152 311.809 105.872 312.042 105.762C312.275 105.652 312.559 105.762 312.67 105.992C313.46 107.684 314.067 109.435 314.472 111.216C314.533 111.466 314.371 111.727 314.108 111.777C314.077 111.777 314.037 111.787 314.007 111.787H314.017ZM264.141 105.292C263.635 104.621 263.817 104.381 264.08 104.351C265.72 104.161 267.391 103.35 268.667 102.149C268.849 101.969 269.163 101.979 269.345 102.169C269.527 102.359 269.517 102.66 269.335 102.84C267.918 104.181 266.044 105.071 264.202 105.292C264.181 105.292 264.161 105.292 264.141 105.292ZM259.737 103C259.22 102.389 259.2 102.139 259.19 101.869C259.19 100.658 259.706 99.257 260.709 97.7158C261.184 97.0252 261.478 96.9852 261.701 97.1253C261.913 97.2754 261.964 97.5757 261.812 97.7858C260.597 99.6172 260.142 100.848 260.142 101.869C260.253 102.7 260.081 102.95 259.818 103C259.787 103 259.757 103 259.726 103H259.737ZM309.46 101.989C308.043 100.378 306.858 99.0168 305.552 97.7358C305.36 97.5556 305.36 97.2554 305.552 97.0653C305.745 96.8751 306.038 96.8851 306.231 97.0653C307.577 98.3763 308.802 99.7874 309.855 101.239C310.007 101.449 309.957 101.749 309.744 101.899C309.663 101.959 309.562 101.989 309.471 101.989H309.46ZM271.836 98.3663C271.421 98.2462 271.299 97.976 271.39 97.7258C271.988 96.1546 272.393 94.4132 272.585 92.5718C272.605 92.3116 272.889 92.1014 273.112 92.1515C273.375 92.1815 273.567 92.4117 273.537 92.6719C273.334 94.6034 272.919 96.4148 272.292 98.066C272.221 98.2562 272.038 98.3663 271.846 98.3663H271.836ZM301.695 94.3732C299.923 93.2223 298.363 92.2916 296.784 91.511C296.551 91.3909 296.45 91.1106 296.571 90.8805C296.683 90.6403 296.976 90.5502 297.209 90.6703C298.829 91.4709 300.439 92.4317 301.968 93.5225C302.181 93.6726 302.231 93.9729 302.079 94.183C301.988 94.3131 301.836 94.3832 301.695 94.3832V94.3732ZM265.376 94.2431C264.829 93.8227 264.89 93.5325 265.103 93.3824C266.53 92.4116 268.201 91.561 270.064 90.8404C270.317 90.7504 270.591 90.8604 270.682 91.1106C270.783 91.3508 270.661 91.631 270.408 91.7211C268.616 92.4217 267.006 93.2423 265.639 94.173C265.558 94.2331 265.467 94.2531 265.366 94.2531L265.376 94.2431ZM275.501 90.1799C274.975 89.5594 275.137 89.3092 275.4 89.2492C277.152 88.8589 278.994 88.5687 280.888 88.3785C281.11 88.3285 281.384 88.5386 281.404 88.7988C281.434 89.0591 281.242 89.2892 280.979 89.3192C279.136 89.5094 277.324 89.7896 275.613 90.1699C275.582 90.1699 275.542 90.1799 275.511 90.1799H275.501ZM291.873 89.6295C291.134 89.4694 290.547 89.3593 290.02 89.2992C288.917 89.1691 287.712 89.0991 286.416 89.0791C286.153 89.0791 285.94 88.8589 285.95 88.5987C285.95 88.3385 286.163 88.1383 286.426 88.1383C287.752 88.1583 289.008 88.2284 290.132 88.3685C290.699 88.4386 291.327 88.5486 291.995 88.7088C292.248 88.7688 292.41 89.029 292.349 89.2792C292.299 89.4994 292.106 89.6395 291.883 89.6395L291.873 89.6295ZM273.071 87.658C272.454 85.5463 272.16 83.7649 271.745 81.9335C271.684 81.6833 271.846 81.4231 272.109 81.3731C272.383 81.323 272.626 81.4732 272.676 81.7334C273.112 83.6048 273.395 85.4262 273.547 87.1576C273.567 87.4178 273.375 87.6479 273.112 87.668C273.102 87.668 273.081 87.668 273.071 87.668V87.658ZM270.692 77.0798C269.75 75.3584 269.193 73.9573 268.586 72.5863L268.211 71.7656C268.1 71.5254 268.211 71.2452 268.444 71.1351C268.677 71.025 268.971 71.1351 269.082 71.3653L269.457 72.1959C270.074 73.587 270.641 75.0181 271.137 76.4493C271.228 76.6994 271.087 76.9596 270.844 77.0497C270.793 77.0697 270.742 77.0798 270.692 77.0798ZM138.844 76.6594C138.368 76.4593 138.297 76.169 138.439 75.9489C139.381 74.3977 140.403 72.8565 141.487 71.3853C141.639 71.1752 141.942 71.1251 142.155 71.2752C142.368 71.4254 142.418 71.7256 142.266 71.9358C141.203 73.3869 140.191 74.8981 139.259 76.4292C139.168 76.5794 139.016 76.6594 138.854 76.6594H138.844ZM145.284 67.8726C144.767 67.5924 144.747 67.2921 144.919 67.092C146.114 65.7309 147.39 64.3799 148.696 63.0989C148.878 62.9187 149.192 62.9187 149.374 63.0989C149.556 63.289 149.556 63.5893 149.374 63.7694C148.078 65.0304 146.823 66.3614 145.648 67.7025C145.547 67.8125 145.415 67.8626 145.284 67.8626V67.8726ZM266.075 67.2521C264.728 65.4907 263.695 63.9996 262.602 62.5885C262.44 62.3783 262.48 62.0881 262.693 61.928C262.906 61.7679 263.209 61.8079 263.361 62.018C264.485 63.4592 265.538 64.9803 266.49 66.5416C266.622 66.7617 266.551 67.052 266.328 67.1921C266.247 67.2421 266.166 67.2621 266.085 67.2621L266.075 67.2521ZM153.09 60.2567C152.553 59.8864 152.584 59.5962 152.786 59.426C154.173 58.2651 155.641 57.1343 157.14 56.0534C157.353 55.9033 157.646 55.9433 157.808 56.1635C157.96 56.3737 157.92 56.6739 157.707 56.824C156.229 57.8848 154.781 59.0057 153.414 60.1466C153.323 60.2167 153.211 60.2567 153.1 60.2567H153.09ZM259.392 58.6554C257.782 57.2143 256.446 55.9934 255.059 54.8625C254.856 54.6924 254.826 54.4021 254.998 54.202C255.17 54.0018 255.474 53.9718 255.666 54.1419C257.084 55.2928 258.451 56.5438 259.737 57.8648C259.919 58.055 259.909 58.3552 259.726 58.5353C259.635 58.6254 259.514 58.6654 259.392 58.6654V58.6554ZM161.959 53.8717C161.413 53.4314 161.484 53.1412 161.706 53.001C163.255 52.0403 164.865 51.1196 166.485 50.2689C166.708 50.1488 167.002 50.2289 167.133 50.4591C167.255 50.6892 167.174 50.9695 166.941 51.0996C165.341 51.9402 163.752 52.8509 162.213 53.8017C162.132 53.8517 162.051 53.8717 161.959 53.8717ZM250.918 51.7801C249.794 51.1496 249.034 50.6993 248.326 50.319C247.526 49.8986 246.726 49.4883 245.916 49.088C245.683 48.9679 245.582 48.6877 245.703 48.4575C245.825 48.2273 246.108 48.1273 246.341 48.2474C247.161 48.6477 247.981 49.058 248.781 49.4883C249.52 49.8786 250.3 50.349 251.191 50.9094C251.414 51.0495 251.475 51.3398 251.333 51.5599C251.242 51.7 251.09 51.7701 250.938 51.7701L250.918 51.7801ZM171.639 48.7477C171.092 48.2373 171.204 47.9571 171.436 47.847C173.107 47.0965 174.818 46.3859 176.529 45.7454C176.772 45.6553 177.056 45.7754 177.147 46.0156C177.238 46.2558 177.117 46.536 176.874 46.6261C175.183 47.2666 173.482 47.9571 171.831 48.7077C171.771 48.7377 171.7 48.7477 171.629 48.7477H171.639ZM241.117 46.9063C239.264 46.1958 237.543 45.5653 235.821 44.9948C235.568 44.9148 235.437 44.6446 235.518 44.3944C235.599 44.1442 235.872 44.0141 236.125 44.0941C237.877 44.6646 239.618 45.3051 241.309 45.9956C241.552 46.0957 241.674 46.3659 241.572 46.6061C241.501 46.7862 241.319 46.8963 241.127 46.8963L241.117 46.9063ZM181.906 44.8747C181.369 44.2943 181.511 44.0341 181.764 43.954C183.495 43.4236 185.287 42.9232 187.08 42.4829C187.343 42.4228 187.596 42.5729 187.657 42.8231C187.717 43.0733 187.566 43.3335 187.312 43.3936C185.541 43.8339 183.769 44.3143 182.047 44.8447C181.997 44.8547 181.956 44.8647 181.906 44.8647V44.8747ZM230.698 43.4837C228.825 43.0233 227.033 42.623 225.251 42.2827C224.988 42.2327 224.815 41.9825 224.876 41.7323C224.927 41.4821 225.15 41.302 225.433 41.362C227.245 41.7023 229.058 42.1026 230.82 42.5529C231.073 42.613 231.225 42.8732 231.164 43.1234C231.103 43.3335 230.911 43.4736 230.698 43.4736V43.4837ZM192.567 42.2827C192.051 41.6422 192.223 41.392 192.476 41.342C194.278 41.0117 196.111 40.7415 197.934 40.5214C198.187 40.5113 198.43 40.6715 198.47 40.9317C198.501 41.1919 198.318 41.4221 198.055 41.4621C196.253 41.6823 194.44 41.9525 192.648 42.2827C192.618 42.2827 192.588 42.2827 192.567 42.2827ZM219.915 41.4521C218.072 41.2319 216.24 41.0618 214.417 40.9517C214.154 40.9317 213.951 40.7115 213.972 40.4513C213.992 40.1911 214.225 40.021 214.478 40.011C216.321 40.121 218.173 40.2912 219.976 40.5113C220.239 40.5414 220.421 40.7816 220.391 41.0418C220.36 41.2819 220.158 41.4521 219.915 41.4521ZM203.462 40.9617C202.966 40.2611 203.168 40.041 203.431 40.021C205.284 39.9109 207.137 39.8508 208.96 39.8508C209.223 39.8508 209.436 40.061 209.436 40.3212C209.436 40.5814 209.223 40.7916 208.96 40.7916C207.168 40.7916 205.325 40.8516 203.502 40.9617H203.472H203.462Z" fill="#0A0C0C"/>
<path d="M166.982 204.469C166.708 204.469 166.496 204.248 166.506 203.988C166.506 203.918 166.698 196.863 167.69 192.139C168.672 187.465 165.058 179.689 162.739 178.819C161.494 178.348 160.34 178.418 159.641 178.979C159.155 179.369 158.952 179.99 159.074 180.71C159.489 183.172 160.188 184.673 160.745 185.874C161.484 187.465 162.01 188.606 161.291 190.628C160.35 193.26 158.871 193.63 158.284 193.67C157.515 193.7 156.836 193.34 156.522 192.719C156.016 191.709 154.143 184.003 157.11 180.02C158.598 178.148 159.611 176.617 158.183 175.256C157.14 174.265 155.145 174.565 153.941 175.466C152.128 176.827 151.257 179.459 150.63 181.391C148.362 188.296 150.599 194.791 150.63 194.851C150.721 195.091 150.589 195.362 150.336 195.452C150.083 195.532 149.82 195.412 149.729 195.161C149.627 194.881 147.349 188.316 149.729 181.1C150.397 179.049 151.318 176.247 153.374 174.715C154.892 173.575 157.413 173.204 158.851 174.575C159.995 175.656 160.016 176.827 159.59 177.918C160.542 177.458 161.798 177.458 163.104 177.948C166.05 179.049 169.685 187.415 168.652 192.339C167.68 196.983 167.488 203.948 167.488 204.018C167.488 204.278 167.265 204.479 167.012 204.479L166.982 204.469ZM158.082 180.3C155.196 184.153 156.917 191.388 157.373 192.289C157.515 192.569 157.829 192.739 158.223 192.719C159.054 192.669 159.864 191.769 160.39 190.308C160.988 188.656 160.562 187.756 159.874 186.264C159.297 185.013 158.568 183.452 158.132 180.86C158.102 180.67 158.082 180.48 158.082 180.3Z" fill="#0A0C0C"/>
<path d="M145.274 196.362C143.866 191.549 143.097 181.951 146.934 177.418C148.392 175.696 150.356 174.836 152.796 174.916C153.06 174.916 153.272 175.136 153.262 175.396C153.262 175.656 152.999 175.877 152.776 175.856C150.64 175.826 148.939 176.527 147.673 178.018C144.079 182.281 144.838 191.509 145.749 195.792C145.8 196.042 145.638 196.292 145.375 196.352C145.344 196.352 145.314 196.352 145.274 196.352V196.362Z" fill="#0A0C0C"/>
<path d="M159.297 177.998C158.75 177.548 158.821 177.258 159.054 177.128L163.762 174.335C163.985 174.205 164.278 174.275 164.42 174.495C164.552 174.716 164.481 175.006 164.258 175.146L159.55 177.938C159.469 177.988 159.388 178.008 159.307 178.008L159.297 177.998ZM168.723 172.404C168.176 171.954 168.247 171.663 168.48 171.533L173.188 168.741C173.411 168.611 173.705 168.671 173.846 168.901C173.978 169.121 173.907 169.412 173.684 169.552L168.976 172.344C168.895 172.384 168.814 172.414 168.733 172.414L168.723 172.404ZM178.139 166.82C177.593 166.369 177.663 166.079 177.896 165.939L182.604 163.147C182.827 163.017 183.121 163.077 183.263 163.307C183.394 163.527 183.323 163.817 183.101 163.957L178.392 166.749C178.311 166.8 178.23 166.82 178.149 166.82H178.139ZM187.566 161.225C187.019 160.775 187.09 160.485 187.323 160.355L192.031 157.562C192.243 157.432 192.547 157.502 192.689 157.722C192.821 157.943 192.75 158.233 192.527 158.373L187.819 161.165C187.748 161.205 187.657 161.235 187.576 161.235L187.566 161.225ZM196.982 155.641C196.435 155.191 196.506 154.9 196.739 154.76L201.447 151.968C201.67 151.838 201.963 151.908 202.105 152.128C202.237 152.348 202.166 152.639 201.943 152.779L197.235 155.571C197.154 155.611 197.073 155.641 196.992 155.641H196.982ZM206.408 150.047C205.862 149.596 205.932 149.306 206.165 149.176L210.873 146.384C211.096 146.244 211.39 146.324 211.532 146.544C211.663 146.764 211.592 147.054 211.37 147.194L206.661 149.986C206.58 150.036 206.499 150.057 206.418 150.057L206.408 150.047Z" fill="#0A0C0C"/>
<path d="M146.043 209.653C140.849 202.177 140.869 193.65 140.879 189.077C140.889 183.532 145.537 179.539 145.739 179.369C145.942 179.199 146.236 179.219 146.408 179.419C146.58 179.619 146.56 179.92 146.357 180.08C146.317 180.12 141.851 183.963 141.831 189.077C141.831 193.56 141.801 201.897 146.438 208.922C146.58 209.142 146.519 209.433 146.296 209.573C146.215 209.623 146.124 209.653 146.033 209.653H146.043Z" fill="#0A0C0C"/>
<path d="M226.668 164.938C226.344 164.818 223.621 162.686 219.358 160.544C214.822 158.273 210.478 150.246 211.44 147.284C211.866 145.983 212.655 145.002 213.607 144.562C212.483 144.202 211.572 143.451 211.43 141.9C211.248 139.938 213.121 138.217 214.964 137.757C217.455 137.136 220.249 138.167 222.284 138.928C229.473 141.6 233.25 147.454 233.401 147.704C233.543 147.925 233.472 148.215 233.25 148.355C233.027 148.495 232.733 148.425 232.591 148.205C232.551 148.145 228.825 142.36 221.95 139.808C220.036 139.098 217.404 138.117 215.197 138.667C213.729 139.038 212.25 140.389 212.382 141.81C212.564 143.771 214.407 143.932 216.796 143.962C221.829 144.152 226.739 150.407 227.215 151.437C227.509 152.068 227.377 152.838 226.871 153.389C226.476 153.819 225.271 154.73 222.598 153.819C220.553 153.119 219.976 151.988 219.186 150.437C218.578 149.256 217.829 147.785 216.138 145.923C215.642 145.383 215.045 145.152 214.417 145.283C213.526 145.473 212.757 146.323 212.352 147.574C211.592 149.906 215.49 157.552 219.793 159.704C224.147 161.885 226.861 164.007 226.972 164.097C227.185 164.257 227.215 164.558 227.053 164.758C226.962 164.878 226.82 164.938 226.678 164.938H226.668ZM216.422 144.892C218.609 147.234 219.388 148.765 220.016 149.996C220.765 151.457 221.211 152.338 222.892 152.919C224.38 153.429 225.585 153.359 226.152 152.748C226.395 152.478 226.476 152.118 226.334 151.828C225.808 150.697 221.049 145.062 216.756 144.902C216.645 144.902 216.533 144.902 216.412 144.902L216.422 144.892Z" fill="#0A0C0C"/>
<path d="M242.716 156.311C240.519 149.256 237.522 144.972 231.549 140.699C227.661 137.917 222.487 135.145 216.877 138.437C216.645 138.567 216.351 138.497 216.219 138.267C216.088 138.047 216.159 137.757 216.381 137.617C222.466 134.044 227.974 136.976 232.095 139.928C238.272 144.352 241.38 148.775 243.172 155.711C243.233 155.961 243.081 156.221 242.828 156.281C242.787 156.281 242.747 156.291 242.706 156.291L242.716 156.311Z" fill="#0A0C0C"/>
<path d="M9.71 148.936C8.4545 148.795 7.7255 148.375 7.22938 147.715L0.617753 139.048C0.121628 138.397 -0.090997 137.587 0.020378 136.776C0.131753 135.965 0.567128 135.255 1.22525 134.765L9.98338 128.229C11.3401 127.219 13.2841 127.489 14.3169 128.83L20.9285 137.497C21.4246 138.147 21.6373 138.958 21.5158 139.758C21.4044 140.569 20.9791 141.29 20.3109 141.78L11.5426 148.305C10.9959 148.705 10.358 148.926 9.68975 148.926L9.71 148.936ZM11.8565 128.57C11.411 128.57 10.9554 128.71 10.5706 129L1.80238 135.525C1.34675 135.865 1.05313 136.356 0.972128 136.916C0.891128 137.477 1.03288 138.037 1.38725 138.487L7.99888 147.144C8.70763 148.075 10.0543 148.265 10.9959 147.564L19.7641 141.029C20.2198 140.689 20.5134 140.199 20.5944 139.638C20.6754 139.078 20.5336 138.517 20.1894 138.067L13.5778 129.4C13.1626 128.85 12.5146 128.56 11.8666 128.56L11.8565 128.57Z" fill="#0A0C0C"/>
<path d="M22.6294 128.62C22.356 128.62 22.1535 128.4 22.1535 128.139C22.1535 127.639 22.0017 127.169 21.6979 126.768L15.2179 118.282C14.8534 117.811 14.3269 117.501 13.7397 117.421C13.1423 117.341 12.555 117.491 12.069 117.851L3.48305 124.246C3.00717 124.597 2.6933 125.117 2.6123 125.698C2.5718 125.958 2.33892 126.138 2.07567 126.098C1.81242 126.058 1.63017 125.818 1.67067 125.567C1.79217 124.737 2.23767 124.006 2.91605 123.496L11.502 117.091C12.1804 116.58 13.0309 116.37 13.8713 116.48C14.7218 116.6 15.471 117.031 15.9874 117.711L22.4674 126.198C22.9028 126.768 23.1255 127.439 23.1154 128.149C23.1154 128.41 22.9028 128.62 22.6395 128.62H22.6294Z" fill="#0A0C0C"/>
<path d="M12.5551 127.319C12.2311 127.279 12.0488 127.038 12.0792 126.778L13.2638 118.442C13.3043 118.182 13.5372 118.001 13.8005 118.041C14.0637 118.081 14.246 118.322 14.2055 118.572L13.0208 126.908C12.9905 127.139 12.788 127.309 12.545 127.309L12.5551 127.319Z" fill="#0A0C0C"/>
<path d="M210.914 196.602H171.042C170.778 196.602 170.566 196.392 170.566 196.132C170.566 195.872 170.778 195.662 171.042 195.662H210.914C214.721 195.662 218.062 194.881 221.444 193.19C221.677 193.07 221.96 193.17 222.092 193.4C222.213 193.63 222.112 193.92 221.879 194.03C218.406 195.762 214.822 196.602 210.914 196.602Z" fill="#0A0C0C"/>
<path d="M138.844 196.603H102.485C102.222 196.603 102.009 196.392 102.009 196.132C102.009 195.872 102.222 195.662 102.485 195.662H138.844C139.107 195.662 139.32 195.872 139.32 196.132C139.32 196.392 139.107 196.603 138.844 196.603Z" fill="#0A0C0C"/>
<path d="M81.172 195.051C78.337 194.011 75.7349 192.559 73.0315 190.568C70.0649 188.376 66.7439 182.311 66.6021 182.051C65.1239 178.819 64.3848 175.406 64.3848 171.873V104.871C64.3848 91.2307 75.6134 80.1421 89.4138 80.1421H122.928C123.191 80.1421 123.403 80.3523 123.403 80.6125C123.403 80.8727 123.191 81.0828 122.928 81.0828H89.4138C76.1399 81.0828 65.3466 91.7611 65.3466 104.871V171.873C65.3466 175.276 66.0554 178.559 67.4628 181.641C67.483 181.671 70.804 187.756 73.6086 189.817C76.2411 191.759 78.7724 193.17 81.3441 194.151C81.5871 194.241 81.7086 194.521 81.6175 194.761C81.5466 194.951 81.3644 195.061 81.172 195.061V195.051Z" fill="#0A0C0C"/>
<path d="M235.234 140.669C234.971 140.669 234.758 140.459 234.758 140.199V104.871C234.758 91.7511 223.965 81.0828 210.691 81.0828H154.72C154.457 81.0828 154.244 80.8727 154.244 80.6125C154.244 80.3523 154.457 80.1421 154.72 80.1421H210.691C224.491 80.1421 235.72 91.2407 235.72 104.871V140.199C235.72 140.459 235.507 140.669 235.244 140.669H235.234Z" fill="#0A0C0C"/>
<path d="M316.973 287.613H268.829C268.566 287.613 268.353 287.403 268.353 287.143C268.353 286.883 268.566 286.672 268.829 286.672H316.973C323.413 286.672 328.647 281.498 328.647 275.133V239.366C328.647 233.001 323.413 227.827 316.973 227.827H280.432C280.169 227.827 279.956 227.617 279.956 227.356C279.956 227.096 280.169 226.886 280.432 226.886H316.973C323.939 226.886 329.599 232.48 329.599 239.366V275.133C329.599 282.019 323.939 287.613 316.973 287.613Z" fill="#0A0C0C"/>
<path d="M0.607574 137.046C0.283574 137.006 0.101324 136.766 0.131699 136.506L1.7517 125.167C1.7922 124.907 2.0352 124.747 2.28832 124.767C2.55157 124.807 2.73382 125.047 2.69332 125.297L1.07332 136.626C1.04295 136.866 0.830324 137.036 0.597449 137.036L0.607574 137.046Z" fill="#0A0C0C"/>
<path d="M21.0397 139.648C20.7157 139.608 20.5335 139.368 20.5638 139.108L22.1838 127.779C22.2243 127.519 22.4775 127.359 22.7205 127.379C22.9837 127.419 23.166 127.659 23.1255 127.909L21.5055 139.238C21.4751 139.478 21.2625 139.648 21.0296 139.648H21.0397Z" fill="#0A0C0C"/>
<path d="M228.42 109.715H71.6749C71.4116 109.715 71.199 109.505 71.199 109.245C71.199 108.985 71.4116 108.774 71.6749 108.774H228.42C228.683 108.774 228.896 108.985 228.896 109.245C228.896 109.505 228.683 109.715 228.42 109.715Z" fill="#0A0C0C"/>
<path d="M218.336 101.839C215.177 101.839 212.615 99.3071 212.615 96.1847C212.615 93.0622 215.177 90.5303 218.336 90.5303C221.495 90.5303 224.056 93.0722 224.056 96.1847C224.056 99.2971 221.495 101.839 218.336 101.839ZM218.336 91.471C215.703 91.471 213.567 93.5826 213.567 96.1847C213.567 98.7867 215.703 100.898 218.336 100.898C220.968 100.898 223.104 98.7867 223.104 96.1847C223.104 93.5826 220.968 91.471 218.336 91.471Z" fill="#0A0C0C"/>
<path d="M201.953 101.839C198.794 101.839 196.233 99.3071 196.233 96.1847C196.233 93.0622 198.794 90.5303 201.953 90.5303C205.112 90.5303 207.674 93.0722 207.674 96.1847C207.674 99.2971 205.112 101.839 201.953 101.839ZM201.953 91.471C199.321 91.471 197.184 93.5826 197.184 96.1847C197.184 98.7867 199.321 100.898 201.953 100.898C204.586 100.898 206.722 98.7867 206.722 96.1847C206.722 93.5826 204.586 91.471 201.953 91.471Z" fill="#0A0C0C"/>
<path d="M185.561 101.839C182.402 101.839 179.84 99.3071 179.84 96.1847C179.84 93.0622 182.412 90.5303 185.561 90.5303C188.71 90.5303 191.282 93.0722 191.282 96.1847C191.282 99.2971 188.72 101.839 185.561 101.839ZM185.561 91.471C182.928 91.471 180.792 93.5826 180.792 96.1847C180.792 98.7867 182.928 100.898 185.561 100.898C188.193 100.898 190.33 98.7867 190.33 96.1847C190.33 93.5826 188.193 91.471 185.561 91.471Z" fill="#0A0C0C"/>
<path d="M215.045 177.998H165.442C165.179 177.998 164.967 177.788 164.967 177.528C164.967 177.268 165.179 177.057 165.442 177.057H214.569V159.544C214.569 159.284 214.782 159.073 215.045 159.073C215.308 159.073 215.521 159.284 215.521 159.544V177.528C215.521 177.788 215.308 177.998 215.045 177.998Z" fill="#0A0C0C"/>
<path d="M151.328 172.794C151.065 172.794 150.852 172.584 150.852 172.324V136.026C150.852 135.765 151.065 135.555 151.328 135.555H210.124C210.387 135.555 210.6 135.765 210.6 136.026C210.6 136.286 210.387 136.496 210.124 136.496H151.814V172.324C151.814 172.584 151.602 172.794 151.338 172.794H151.328Z" fill="#0A0C0C"/>
<path d="M126.765 184.603C126.502 184.603 126.289 184.393 126.289 184.133V117.521C126.289 117.261 126.502 117.051 126.765 117.051C127.028 117.051 127.241 117.261 127.241 117.521V184.133C127.241 184.393 127.028 184.603 126.765 184.603Z" fill="#0A0C0C"/>
<path d="M100.157 142.02H81.1722C80.9089 142.02 80.6963 141.81 80.6963 141.55V122.785C80.6963 122.525 80.9089 122.315 81.1722 122.315H100.157C100.42 122.315 100.632 122.525 100.632 122.785V141.55C100.632 141.81 100.42 142.02 100.157 142.02ZM81.648 141.07H99.6807V123.246H81.648V141.07Z" fill="#0A0C0C"/>
<path d="M100.157 174.315H81.1722C80.9089 174.315 80.6963 174.105 80.6963 173.845V155.08C80.6963 154.82 80.9089 154.61 81.1722 154.61H100.157C100.42 154.61 100.632 154.82 100.632 155.08V173.845C100.632 174.105 100.42 174.315 100.157 174.315ZM81.648 173.364H99.6807V155.541H81.648V173.364Z" fill="#0A0C0C"/>
<path d="M138.48 290.976C132.546 290.976 127.727 286.202 127.727 280.347C127.727 274.493 132.556 269.719 138.48 269.719C144.403 269.719 149.232 274.493 149.232 280.347C149.232 286.202 144.403 290.976 138.48 290.976ZM138.48 270.66C133.073 270.66 128.679 275.003 128.679 280.347C128.679 285.692 133.073 290.035 138.48 290.035C143.886 290.035 148.281 285.692 148.281 280.347C148.281 275.003 143.886 270.66 138.48 270.66Z" fill="#0A0C0C"/>
<path d="M34.8402 77.9605C34.3137 77.6403 34.3137 77.34 34.5061 77.1599L43.4566 68.313C43.6388 68.1229 43.9426 68.1229 44.1349 68.313C44.3273 68.4932 44.3273 68.7934 44.1349 68.9835L35.1844 77.8304C35.0933 77.9205 34.9718 77.9705 34.8503 77.9705L34.8402 77.9605Z" fill="#0A0C0C"/>
<path d="M43.8008 77.9605C43.4667 77.8204 34.5061 68.9735 34.5061 68.9735C34.3238 68.7934 34.3238 68.4932 34.5061 68.303C34.6883 68.1129 34.9921 68.1129 35.1844 68.303L44.1349 77.1499C44.3273 77.33 44.3273 77.6303 44.1349 77.8204C44.0438 77.9105 43.9223 77.9605 43.8008 77.9605Z" fill="#0A0C0C"/>
<path d="M323.797 116.901C323.797 116.901 323.787 116.891 323.777 116.891C323.666 116.81 323.534 116.75 323.413 116.69C323.372 116.67 323.332 116.64 323.281 116.62C323.16 116.57 323.028 116.54 322.906 116.5C322.846 116.48 322.795 116.46 322.734 116.45C322.542 116.41 322.35 116.39 322.147 116.39H314.644C314.644 116.39 314.584 116.39 314.543 116.39C312.974 116.44 311.718 117.711 311.718 119.262V125.787C311.718 126.778 312.225 127.639 312.984 128.159C312.984 128.159 312.994 128.169 313.004 128.179C313.116 128.259 313.247 128.319 313.369 128.379C313.409 128.399 313.45 128.429 313.5 128.449C313.622 128.5 313.753 128.53 313.875 128.57C313.936 128.59 313.986 128.61 314.047 128.62C314.239 128.66 314.432 128.68 314.634 128.68H322.137C322.137 128.68 322.198 128.68 322.238 128.68C323.808 128.63 325.063 127.359 325.063 125.807V119.282C325.063 118.292 324.557 117.421 323.797 116.901ZM321.388 127.749H314.644C313.561 127.749 312.68 126.878 312.68 125.807V119.282C312.68 118.232 313.531 117.381 314.594 117.341C314.614 117.341 314.634 117.341 314.655 117.341H322.157C323.241 117.341 324.121 118.212 324.121 119.282V125.807C324.121 126.858 323.271 127.709 322.208 127.749C322.188 127.749 322.167 127.749 322.147 127.749H321.388Z" fill="#0A0C0C"/>
</g>
<defs>
<clipPath id="clip0_741_860">
<rect width="405" height="309" fill="white" transform="translate(0 0.470215)"/>
</clipPath>
</defs>
</svg>
